<svg width="890" height="909" viewBox="0 0 890 909" fill="none" xmlns="http://www.w3.org/2000/svg">
<path d="M802.912 776.348C802.781 776.348 802.651 776.323 802.529 776.272C802.408 776.222 802.298 776.148 802.205 776.055C800.796 774.647 798.5 748.797 792.314 671.832C789.782 640.34 787.391 610.594 785.647 592.517C785.522 591.226 785.022 591.076 784.857 591.027C782.469 590.306 775.205 596.033 771.15 601.049C770.983 601.255 770.741 601.387 770.477 601.415C770.214 601.443 769.949 601.365 769.743 601.198C769.537 601.031 769.405 600.789 769.377 600.525C769.349 600.261 769.427 599.997 769.594 599.791C772.276 596.475 781.016 587.782 785.432 589.111C786.323 589.379 787.432 590.153 787.638 592.325C789.384 610.418 791.775 640.172 794.307 671.672C798.066 718.442 802.325 771.428 803.724 774.765C803.831 774.914 803.895 775.09 803.909 775.274C803.922 775.457 803.885 775.641 803.801 775.804C803.717 775.968 803.59 776.105 803.433 776.201C803.276 776.297 803.096 776.348 802.912 776.348Z" fill="#494949"/>
<path d="M783.077 625.688C799.671 612.386 805.17 591.683 795.361 579.445C785.552 567.208 764.148 568.07 747.554 581.372C730.96 594.673 725.46 615.376 735.27 627.614C745.079 639.851 766.483 638.989 783.077 625.688Z" fill="#0CBC8B"/>
<path opacity="0.2" d="M783.077 625.688C799.671 612.386 805.17 591.683 795.361 579.445C785.552 567.208 764.148 568.07 747.554 581.372C730.96 594.673 725.46 615.376 735.27 627.614C745.079 639.851 766.483 638.989 783.077 625.688Z" fill="white"/>
<path d="M739.922 630.727C739.827 630.727 739.734 630.7 739.654 630.649C739.574 630.598 739.511 630.525 739.47 630.439C739.43 630.353 739.415 630.258 739.427 630.164C739.439 630.07 739.478 629.981 739.538 629.908L786.829 572.879C786.87 572.827 786.922 572.784 786.98 572.752C787.039 572.721 787.103 572.701 787.169 572.694C787.235 572.687 787.302 572.694 787.365 572.713C787.429 572.733 787.488 572.765 787.539 572.807C787.59 572.849 787.632 572.902 787.663 572.961C787.693 573.019 787.712 573.084 787.717 573.15C787.723 573.216 787.715 573.283 787.695 573.346C787.674 573.409 787.641 573.468 787.598 573.518L740.307 630.547C740.26 630.603 740.201 630.649 740.135 630.68C740.068 630.711 739.995 630.727 739.922 630.727Z" fill="white"/>
<path d="M813.227 764.123C813.067 764.123 812.91 764.085 812.768 764.012C812.626 763.939 812.504 763.833 812.411 763.703C812.319 763.572 812.259 763.422 812.236 763.264C812.214 763.106 812.229 762.945 812.282 762.794L830.046 711.707C830.569 710.206 831.46 708.86 832.638 707.793C833.816 706.725 835.243 705.971 836.788 705.598C838.333 705.225 839.948 705.245 841.483 705.658C843.018 706.071 844.425 706.862 845.575 707.959L854.966 716.93C855.158 717.113 855.269 717.365 855.275 717.63C855.281 717.896 855.182 718.153 854.998 718.344C854.815 718.536 854.563 718.648 854.298 718.654C854.033 718.66 853.776 718.56 853.584 718.377L844.193 709.405C843.285 708.539 842.174 707.915 840.963 707.589C839.751 707.264 838.477 707.248 837.257 707.542C836.037 707.837 834.911 708.432 833.981 709.275C833.052 710.117 832.348 711.179 831.935 712.364L814.171 763.451C814.103 763.647 813.975 763.817 813.806 763.938C813.637 764.058 813.435 764.123 813.227 764.123Z" fill="#494949"/>
<path d="M881.204 745.215C893.502 735.481 892.771 714.073 879.572 697.397C866.373 680.722 845.704 675.095 833.406 684.829C821.109 694.563 821.84 715.972 835.039 732.647C848.238 749.323 868.907 754.949 881.204 745.215Z" fill="#0CBC8B"/>
<path d="M794.842 773.091C794.617 773.091 794.399 773.015 794.223 772.876C794.046 772.736 793.922 772.542 793.87 772.323L764.06 647.678C763.856 646.828 763.422 646.051 762.805 645.433C762.189 644.814 761.413 644.377 760.564 644.17C759.715 643.963 758.826 643.995 757.994 644.261C757.161 644.527 756.419 645.017 755.847 645.678L746.658 656.298C746.484 656.499 746.238 656.622 745.974 656.641C745.709 656.66 745.448 656.574 745.247 656.4C745.046 656.226 744.923 655.98 744.904 655.716C744.885 655.451 744.971 655.19 745.145 654.989L754.335 644.37C755.148 643.431 756.203 642.734 757.386 642.356C758.569 641.978 759.834 641.934 761.04 642.229C762.246 642.523 763.348 643.145 764.224 644.025C765.1 644.905 765.716 646.01 766.005 647.218L795.816 771.862C795.846 771.99 795.852 772.122 795.831 772.252C795.81 772.382 795.764 772.506 795.695 772.618C795.626 772.73 795.536 772.827 795.43 772.904C795.323 772.981 795.203 773.037 795.075 773.067C794.999 773.084 794.92 773.092 794.842 773.091Z" fill="#494949"/>
<path d="M783.848 683.988C787.472 663.032 777.881 643.878 762.427 641.205C746.973 638.533 731.507 653.354 727.883 674.31C724.259 695.266 733.849 714.42 749.304 717.093C764.758 719.765 780.224 704.944 783.848 683.988Z" fill="#0CBC8B"/>
<path d="M802.914 776.348C802.873 776.348 802.831 776.346 802.79 776.341C802.66 776.325 802.534 776.283 802.42 776.219C802.305 776.154 802.205 776.067 802.124 775.964C802.043 775.86 801.984 775.742 801.949 775.615C801.914 775.488 801.904 775.356 801.92 775.226L820.956 620.669C821.163 618.985 821.852 617.397 822.941 616.096C824.029 614.795 825.47 613.835 827.09 613.333C828.71 612.831 830.441 612.808 832.075 613.266C833.708 613.724 835.174 614.644 836.297 615.916L858.055 640.559C858.142 640.657 858.209 640.772 858.251 640.896C858.294 641.021 858.312 641.152 858.303 641.283C858.295 641.414 858.261 641.543 858.204 641.661C858.146 641.779 858.065 641.884 857.967 641.971C857.869 642.058 857.754 642.125 857.63 642.167C857.505 642.21 857.374 642.228 857.243 642.219C857.112 642.211 856.983 642.177 856.865 642.12C856.747 642.062 856.642 641.981 856.555 641.883L834.8 617.24C833.932 616.257 832.799 615.546 831.537 615.192C830.274 614.837 828.937 614.855 827.684 615.243C826.432 615.631 825.318 616.373 824.477 617.379C823.636 618.384 823.103 619.612 822.943 620.913L803.905 775.47C803.875 775.712 803.758 775.935 803.576 776.096C803.393 776.258 803.158 776.348 802.914 776.348Z" fill="#494949"/>
<path d="M880.37 654.254C887.962 640.53 879.03 621.059 860.42 610.766C841.811 600.472 820.571 603.253 812.979 616.977C805.388 630.701 814.32 650.171 832.929 660.465C851.539 670.759 872.779 667.978 880.37 654.254Z" fill="#0CBC8B"/>
<path opacity="0.2" d="M881.204 745.215C893.502 735.481 892.771 714.073 879.572 697.397C866.373 680.722 845.704 675.095 833.406 684.829C821.109 694.563 821.84 715.972 835.039 732.647C848.238 749.323 868.907 754.949 881.204 745.215Z" fill="white"/>
<path opacity="0.5" d="M783.848 683.988C787.472 663.032 777.881 643.878 762.427 641.205C746.973 638.533 731.507 653.354 727.883 674.31C724.259 695.266 733.849 714.42 749.304 717.093C764.758 719.765 780.224 704.944 783.848 683.988Z" fill="white"/>
<path opacity="0.5" d="M880.37 654.254C887.962 640.53 879.03 621.059 860.42 610.766C841.811 600.472 820.571 603.253 812.979 616.977C805.388 630.701 814.32 650.171 832.929 660.465C851.539 670.759 872.779 667.978 880.37 654.254Z" fill="white"/>
<path d="M827.26 907.49H778.564L770.495 751.686H835.33L827.26 907.49Z" fill="#292A2E"/>
<path opacity="0.3" d="M827.26 907.49H778.564L770.495 751.686H835.33L827.26 907.49Z" fill="white"/>
<path d="M881.206 745.71C881.13 745.71 881.056 745.693 880.988 745.66C880.92 745.627 880.86 745.579 880.813 745.52L833.013 685.134C832.972 685.082 832.942 685.023 832.924 684.96C832.906 684.897 832.901 684.831 832.908 684.766C832.916 684.701 832.936 684.637 832.968 684.58C833 684.523 833.043 684.472 833.094 684.431C833.146 684.391 833.205 684.36 833.268 684.342C833.331 684.325 833.397 684.319 833.463 684.327C833.528 684.334 833.591 684.355 833.648 684.387C833.706 684.418 833.756 684.461 833.797 684.513L881.6 744.9C881.682 745.004 881.719 745.136 881.704 745.267C881.689 745.398 881.622 745.518 881.519 745.6C881.43 745.671 881.32 745.71 881.206 745.71Z" fill="white"/>
<path d="M877.192 659.092C877.086 659.091 876.983 659.056 876.898 658.992L815.731 614.33C815.678 614.291 815.633 614.242 815.599 614.186C815.565 614.13 815.542 614.068 815.532 614.003C815.522 613.938 815.524 613.872 815.54 613.808C815.555 613.744 815.583 613.684 815.622 613.631C815.661 613.578 815.71 613.533 815.766 613.499C815.822 613.465 815.884 613.442 815.949 613.432C816.014 613.422 816.08 613.424 816.144 613.44C816.208 613.455 816.268 613.483 816.321 613.522L877.487 658.185C877.571 658.248 877.632 658.335 877.664 658.435C877.695 658.534 877.695 658.641 877.662 658.741C877.63 658.84 877.567 658.927 877.482 658.988C877.398 659.05 877.297 659.084 877.192 659.085V659.092Z" fill="white"/>
<path d="M746.817 716.441C746.774 716.441 746.73 716.435 746.688 716.424C746.56 716.39 746.451 716.306 746.384 716.191C746.318 716.077 746.3 715.94 746.334 715.812L765.806 642.859C765.843 642.734 765.927 642.629 766.041 642.565C766.154 642.501 766.288 642.484 766.414 642.518C766.54 642.551 766.648 642.633 766.714 642.744C766.781 642.856 766.802 642.989 766.772 643.116L747.3 716.07C747.272 716.176 747.209 716.27 747.122 716.338C747.034 716.405 746.927 716.441 746.817 716.441Z" fill="white"/>
<path d="M544.745 691.626H27.73C20.7516 691.626 14.059 688.854 9.12457 683.919C4.19012 678.985 1.41797 672.292 1.41797 665.314L19.418 81.68H588.057L571.057 665.314C571.057 672.292 568.285 678.985 563.35 683.919C558.416 688.854 551.723 691.626 544.745 691.626Z" fill="#292A2E"/>
<path opacity="0.9" d="M544.745 691.626H27.73C20.7516 691.626 14.059 688.854 9.12457 683.919C4.19012 678.985 1.41797 672.292 1.41797 665.314L19.418 81.68H588.057L571.057 665.314C571.057 672.292 568.285 678.985 563.35 683.919C558.416 688.854 551.723 691.626 544.745 691.626Z" fill="white"/>
<path d="M544.745 692.626H27.73C20.4888 692.618 13.5466 689.738 8.4262 684.618C3.30583 679.497 0.425462 672.555 0.416992 665.314L18.417 80.68H589.057L572.057 665.314C572.049 672.555 569.169 679.497 564.048 684.617C558.928 689.738 551.986 692.618 544.745 692.626ZM20.417 82.68L2.41699 665.314C2.42467 672.025 5.09406 678.459 9.83954 683.204C14.585 687.949 21.019 690.619 27.73 690.626H544.745C551.456 690.618 557.89 687.949 562.635 683.204C567.38 678.459 570.049 672.025 570.057 665.314L587.057 82.68H20.417Z" fill="#292A2E"/>
<path d="M563.745 23.811H46.73C39.4888 23.8192 32.5466 26.6993 27.4262 31.8195C22.3058 36.9397 19.4255 43.8818 19.417 51.123L18.417 82.68H589.057L591.057 51.123C591.049 43.8819 588.169 36.9398 583.048 31.8196C577.928 26.6994 570.986 23.8192 563.745 23.811Z" fill="#0C0C0C"/>
<path d="M573.745 23.811H50.73C43.4888 23.8192 36.5466 26.6993 31.4262 31.8195C26.3058 36.9397 23.4255 43.8818 23.417 51.123V82.68H601.057V51.123C601.049 43.8819 598.169 36.9398 593.048 31.8196C587.928 26.6994 580.986 23.8192 573.745 23.811Z" fill="#292A2E"/>
<path d="M24.418 81.68H600.058V675.314C600.058 682.292 597.286 688.985 592.351 693.919C587.417 698.854 580.724 701.626 573.746 701.626H50.73C43.7516 701.626 37.059 698.854 32.1246 693.919C27.1901 688.985 24.418 682.292 24.418 675.314V81.68Z" fill="white"/>
<path d="M573.745 702.626H50.73C43.4888 702.618 36.5466 699.738 31.4262 694.618C26.3058 689.497 23.4255 682.555 23.417 675.314V80.68H601.057V675.314C601.049 682.555 598.169 689.497 593.048 694.617C587.928 699.738 580.986 702.618 573.745 702.626ZM25.417 82.68V675.314C25.4247 682.025 28.0941 688.459 32.8395 693.204C37.585 697.949 44.019 700.619 50.73 700.626H573.745C580.456 700.618 586.89 697.949 591.635 693.204C596.38 688.459 599.049 682.025 599.057 675.314V82.68H25.417Z" fill="#292A2E"/>
<path d="M93.587 0.175995C87.3208 0.183142 81.3133 2.67554 76.8824 7.10642C72.4515 11.5373 69.9591 17.5448 69.952 23.811H71.952C71.9511 19.6589 73.1449 15.5942 75.3911 12.102C77.6373 8.60991 80.8408 5.83785 84.6194 4.11671C88.398 2.39557 92.5921 1.79805 96.701 2.39547C100.81 2.99288 104.66 4.76 107.792 7.48591C110.924 10.2118 113.206 13.7814 114.364 17.7686C115.523 21.7557 115.51 25.9921 114.327 29.9721C113.144 33.952 110.84 37.5075 107.691 40.214C104.543 42.9206 100.681 44.6639 96.569 45.236C96.2225 44.522 95.632 43.9555 94.9042 43.6391C94.1764 43.3226 93.3593 43.2771 92.6009 43.5108C91.8424 43.7445 91.1927 44.2419 90.7691 44.913C90.3455 45.5842 90.1762 46.3848 90.2916 47.1699C90.4071 47.9551 90.7997 48.6731 91.3986 49.1939C91.9974 49.7147 92.7629 50.004 93.5565 50.0094C94.3501 50.0149 95.1194 49.7361 95.7254 49.2236C96.3313 48.711 96.7338 47.9985 96.86 47.215C102.787 46.3875 108.18 43.342 111.949 38.6933C115.718 34.0446 117.584 28.1389 117.168 22.1686C116.753 16.1982 114.088 10.6078 109.711 6.52588C105.334 2.44399 99.5718 0.174652 93.587 0.175995Z" fill="#F4F4F4"/>
<path d="M554.523 23.811C554.482 17.5691 551.974 11.5967 547.546 7.19729C543.118 2.79789 537.129 0.328735 530.887 0.328735C524.645 0.328735 518.657 2.79789 514.229 7.19729C509.801 11.5967 507.293 17.5691 507.252 23.811H509.252C509.251 19.6589 510.445 15.5942 512.691 12.102C514.937 8.60991 518.141 5.83785 521.919 4.11671C525.698 2.39557 529.892 1.79805 534.001 2.39547C538.11 2.99288 541.96 4.76 545.092 7.4859C548.224 10.2118 550.506 13.7814 551.664 17.7686C552.823 21.7557 552.81 25.9921 551.627 29.9721C550.444 33.952 548.14 37.5075 544.991 40.214C541.843 42.9206 537.981 44.6639 533.869 45.236C533.523 44.522 532.932 43.9555 532.204 43.6391C531.476 43.3226 530.659 43.2771 529.901 43.5108C529.142 43.7445 528.493 44.2419 528.069 44.913C527.646 45.5842 527.476 46.3848 527.592 47.1699C527.707 47.9551 528.1 48.6731 528.699 49.1939C529.297 49.7147 530.063 50.004 530.856 50.0094C531.65 50.0149 532.419 49.7361 533.025 49.2236C533.631 48.711 534.034 47.9985 534.16 47.215C539.803 46.4192 544.97 43.6139 548.711 39.3144C552.451 35.0149 554.515 29.51 554.523 23.811Z" fill="#F4F4F4"/>
<path d="M492.051 23.811C492.051 17.5426 489.561 11.5309 485.128 7.09853C480.696 2.6661 474.684 0.175995 468.416 0.175995C462.148 0.175995 456.136 2.6661 451.704 7.09853C447.271 11.5309 444.781 17.5426 444.781 23.811H446.781C446.78 19.6593 447.974 15.595 450.22 12.1033C452.467 8.61158 455.67 5.83987 459.448 4.11893C463.226 2.398 467.42 1.80054 471.529 2.39784C475.637 2.99514 479.487 4.76199 482.619 7.48751C485.751 10.213 488.032 13.7821 489.191 17.7689C490.35 21.7556 490.337 25.9916 489.154 29.9713C487.972 33.951 485.669 37.5063 482.521 40.213C479.373 42.9197 475.512 44.6634 471.4 45.236C471.054 44.5212 470.463 43.954 469.735 43.6369C469.007 43.3197 468.19 43.2737 467.43 43.5071C466.671 43.7404 466.021 44.2378 465.597 44.9092C465.172 45.5805 465.002 46.3816 465.118 47.1674C465.233 47.9531 465.625 48.6717 466.224 49.1932C466.823 49.7146 467.589 50.0044 468.383 50.0102C469.178 50.0159 469.948 49.7373 470.554 49.2246C471.161 48.7119 471.563 47.999 471.69 47.215C477.333 46.4187 482.499 43.6132 486.239 39.3138C489.98 35.0144 492.043 29.5097 492.051 23.811Z" fill="#F4F4F4"/>
<path d="M429.58 23.811C429.539 17.5691 427.031 11.5967 422.603 7.19729C418.175 2.79789 412.186 0.328735 405.944 0.328735C399.702 0.328735 393.714 2.79789 389.286 7.19729C384.858 11.5967 382.35 17.5691 382.309 23.811H384.309C384.308 19.6589 385.502 15.5942 387.748 12.102C389.994 8.60991 393.198 5.83785 396.976 4.11671C400.755 2.39557 404.949 1.79805 409.058 2.39547C413.167 2.99288 417.017 4.76 420.149 7.4859C423.281 10.2118 425.563 13.7814 426.721 17.7686C427.88 21.7557 427.867 25.9921 426.684 29.9721C425.501 33.952 423.197 37.5075 420.048 40.214C416.9 42.9206 413.038 44.6639 408.926 45.236C408.58 44.522 407.989 43.9555 407.261 43.6391C406.533 43.3226 405.716 43.2771 404.958 43.5108C404.199 43.7445 403.55 44.2419 403.126 44.913C402.703 45.5842 402.533 46.3848 402.649 47.1699C402.764 47.9551 403.157 48.6731 403.756 49.1939C404.354 49.7147 405.12 50.004 405.913 50.0094C406.707 50.0149 407.476 49.7361 408.082 49.2236C408.688 48.711 409.091 47.9985 409.217 47.215C414.86 46.4192 420.027 43.6139 423.768 39.3144C427.508 35.0149 429.572 29.51 429.58 23.811Z" fill="#F4F4F4"/>
<path d="M367.108 23.811C367.108 20.7072 366.497 17.6338 365.309 14.7663C364.121 11.8987 362.38 9.29324 360.185 7.09853C357.991 4.90381 355.385 3.16287 352.518 1.9751C349.65 0.787331 346.577 0.175995 343.473 0.175995C340.369 0.175995 337.296 0.787331 334.428 1.9751C331.561 3.16287 328.955 4.90381 326.761 7.09853C324.566 9.29324 322.825 11.8987 321.637 14.7663C320.449 17.6338 319.838 20.7072 319.838 23.811H321.838C321.837 19.6592 323.031 15.5948 325.277 12.103C327.524 8.61121 330.727 5.83945 334.505 4.11853C338.284 2.39761 342.478 1.80022 346.586 2.39764C350.695 2.99507 354.545 4.76209 357.677 7.48781C360.808 10.2135 363.09 13.7828 364.248 17.7697C365.407 21.7566 365.394 25.9927 364.211 29.9724C363.028 33.9521 360.725 37.5074 357.576 40.2138C354.428 42.9203 350.567 44.6637 346.455 45.236C346.109 44.522 345.518 43.9555 344.79 43.6391C344.062 43.3226 343.245 43.2771 342.487 43.5108C341.728 43.7445 341.079 44.2419 340.655 44.913C340.232 45.5842 340.062 46.3848 340.178 47.1699C340.293 47.9551 340.686 48.6731 341.285 49.1939C341.883 49.7147 342.649 50.004 343.443 50.0094C344.236 50.0149 345.005 49.7361 345.611 49.2236C346.217 48.711 346.62 47.9985 346.746 47.215C352.389 46.419 357.555 43.6136 361.296 39.3141C365.037 35.0147 367.1 29.5099 367.108 23.811Z" fill="#F4F4F4"/>
<path d="M304.637 23.811C304.596 17.5691 302.088 11.5967 297.66 7.19729C293.232 2.79789 287.243 0.328735 281.001 0.328735C274.759 0.328735 268.771 2.79789 264.343 7.19729C259.915 11.5967 257.407 17.5691 257.366 23.811H259.366C259.365 19.6589 260.559 15.5942 262.805 12.102C265.051 8.60991 268.255 5.83785 272.033 4.11671C275.812 2.39557 280.006 1.79805 284.115 2.39547C288.224 2.99288 292.074 4.76 295.206 7.4859C298.338 10.2118 300.62 13.7814 301.778 17.7686C302.937 21.7557 302.924 25.9921 301.741 29.9721C300.558 33.952 298.254 37.5075 295.105 40.214C291.957 42.9206 288.096 44.6639 283.983 45.236C283.637 44.522 283.046 43.9555 282.318 43.6391C281.59 43.3226 280.773 43.2771 280.015 43.5108C279.256 43.7445 278.607 44.2419 278.183 44.913C277.76 45.5842 277.59 46.3848 277.706 47.1699C277.821 47.9551 278.214 48.6731 278.813 49.1939C279.411 49.7147 280.177 50.004 280.97 50.0094C281.764 50.0149 282.533 49.7361 283.139 49.2236C283.745 48.711 284.148 47.9985 284.274 47.215C289.917 46.4192 295.084 43.6139 298.825 39.3144C302.565 35.0149 304.629 29.51 304.637 23.811Z" fill="#F4F4F4"/>
<path d="M242.165 23.811C242.165 17.5426 239.675 11.5309 235.242 7.09853C230.81 2.6661 224.798 0.175995 218.53 0.175995C212.262 0.175995 206.25 2.6661 201.818 7.09853C197.385 11.5309 194.895 17.5426 194.895 23.811H196.895C196.894 19.6592 198.088 15.5948 200.334 12.103C202.581 8.61121 205.784 5.83945 209.562 4.11853C213.341 2.39761 217.535 1.80022 221.643 2.39764C225.752 2.99507 229.602 4.76209 232.734 7.48781C235.865 10.2135 238.147 13.7828 239.305 17.7697C240.464 21.7566 240.451 25.9927 239.268 29.9724C238.085 33.9521 235.782 37.5074 232.633 40.2138C229.485 42.9203 225.624 44.6637 221.512 45.236C221.166 44.522 220.575 43.9555 219.847 43.6391C219.119 43.3226 218.302 43.2771 217.544 43.5108C216.785 43.7445 216.136 44.2419 215.712 44.913C215.289 45.5842 215.119 46.3848 215.235 47.1699C215.35 47.9551 215.743 48.6731 216.342 49.1939C216.94 49.7147 217.706 50.004 218.5 50.0094C219.293 50.0149 220.063 49.7361 220.668 49.2236C221.274 48.711 221.677 47.9985 221.803 47.215C227.446 46.419 232.612 43.6136 236.353 39.3141C240.094 35.0147 242.157 29.5099 242.165 23.811Z" fill="#F4F4F4"/>
<path d="M179.694 23.811C179.653 17.5691 177.145 11.5967 172.717 7.19729C168.289 2.79789 162.3 0.328735 156.058 0.328735C149.816 0.328735 143.828 2.79789 139.4 7.19729C134.972 11.5967 132.464 17.5691 132.423 23.811H134.423C134.422 19.6589 135.616 15.5942 137.862 12.102C140.108 8.60991 143.312 5.83785 147.09 4.11671C150.869 2.39557 155.063 1.79805 159.172 2.39547C163.281 2.99288 167.131 4.76 170.263 7.4859C173.395 10.2118 175.677 13.7814 176.835 17.7686C177.994 21.7557 177.981 25.9921 176.798 29.9721C175.615 33.952 173.311 37.5075 170.162 40.214C167.014 42.9206 163.152 44.6639 159.04 45.236C158.694 44.522 158.103 43.9555 157.375 43.6391C156.647 43.3226 155.83 43.2771 155.072 43.5108C154.313 43.7445 153.664 44.2419 153.24 44.913C152.817 45.5842 152.647 46.3848 152.763 47.1699C152.878 47.9551 153.271 48.6731 153.87 49.1939C154.468 49.7147 155.234 50.004 156.027 50.0094C156.821 50.0149 157.59 49.7361 158.196 49.2236C158.802 48.711 159.205 47.9985 159.331 47.215C164.974 46.4192 170.141 43.6139 173.882 39.3144C177.622 35.0149 179.686 29.51 179.694 23.811Z" fill="#F4F4F4"/>
<g opacity="0.6">
<path d="M93.587 0.175995C87.3208 0.183142 81.3133 2.67554 76.8824 7.10642C72.4515 11.5373 69.9591 17.5448 69.952 23.811H71.952C71.9511 19.6589 73.1449 15.5942 75.3911 12.102C77.6373 8.60991 80.8408 5.83785 84.6194 4.11671C88.398 2.39557 92.5921 1.79805 96.701 2.39547C100.81 2.99288 104.66 4.76 107.792 7.48591C110.924 10.2118 113.206 13.7814 114.364 17.7686C115.523 21.7557 115.51 25.9921 114.327 29.9721C113.144 33.952 110.84 37.5075 107.691 40.214C104.543 42.9206 100.681 44.6639 96.569 45.236C96.2225 44.522 95.632 43.9555 94.9042 43.6391C94.1764 43.3226 93.3593 43.2771 92.6009 43.5108C91.8424 43.7445 91.1927 44.2419 90.7691 44.913C90.3455 45.5842 90.1762 46.3848 90.2916 47.1699C90.4071 47.9551 90.7997 48.6731 91.3986 49.1939C91.9974 49.7147 92.7629 50.004 93.5565 50.0094C94.3501 50.0149 95.1194 49.7361 95.7254 49.2236C96.3313 48.711 96.7338 47.9985 96.86 47.215C102.787 46.3875 108.18 43.342 111.949 38.6933C115.718 34.0446 117.584 28.1389 117.168 22.1686C116.753 16.1982 114.088 10.6078 109.711 6.52588C105.334 2.44399 99.5718 0.174652 93.587 0.175995Z" fill="#292A2E"/>
<path d="M554.523 23.811C554.482 17.5691 551.974 11.5967 547.546 7.19729C543.118 2.79789 537.129 0.328735 530.887 0.328735C524.645 0.328735 518.657 2.79789 514.229 7.19729C509.801 11.5967 507.293 17.5691 507.252 23.811H509.252C509.251 19.6589 510.445 15.5942 512.691 12.102C514.937 8.60991 518.141 5.83785 521.919 4.11671C525.698 2.39557 529.892 1.79805 534.001 2.39547C538.11 2.99288 541.96 4.76 545.092 7.4859C548.224 10.2118 550.506 13.7814 551.664 17.7686C552.823 21.7557 552.81 25.9921 551.627 29.9721C550.444 33.952 548.14 37.5075 544.991 40.214C541.843 42.9206 537.981 44.6639 533.869 45.236C533.523 44.522 532.932 43.9555 532.204 43.6391C531.476 43.3226 530.659 43.2771 529.901 43.5108C529.142 43.7445 528.493 44.2419 528.069 44.913C527.646 45.5842 527.476 46.3848 527.592 47.1699C527.707 47.9551 528.1 48.6731 528.699 49.1939C529.297 49.7147 530.063 50.004 530.856 50.0094C531.65 50.0149 532.419 49.7361 533.025 49.2236C533.631 48.711 534.034 47.9985 534.16 47.215C539.803 46.4192 544.97 43.6139 548.711 39.3144C552.451 35.0149 554.515 29.51 554.523 23.811Z" fill="#292A2E"/>
<path d="M492.051 23.811C492.051 17.5426 489.561 11.5309 485.128 7.09853C480.696 2.6661 474.684 0.175995 468.416 0.175995C462.148 0.175995 456.136 2.6661 451.704 7.09853C447.271 11.5309 444.781 17.5426 444.781 23.811H446.781C446.78 19.6593 447.974 15.595 450.22 12.1033C452.467 8.61158 455.67 5.83987 459.448 4.11893C463.226 2.398 467.42 1.80054 471.529 2.39784C475.637 2.99514 479.487 4.76199 482.619 7.48751C485.751 10.213 488.032 13.7821 489.191 17.7689C490.35 21.7556 490.337 25.9916 489.154 29.9713C487.972 33.951 485.669 37.5063 482.521 40.213C479.373 42.9197 475.512 44.6634 471.4 45.236C471.054 44.5212 470.463 43.954 469.735 43.6369C469.007 43.3197 468.19 43.2737 467.43 43.5071C466.671 43.7404 466.021 44.2378 465.597 44.9092C465.172 45.5805 465.002 46.3816 465.118 47.1674C465.233 47.9531 465.625 48.6717 466.224 49.1932C466.823 49.7146 467.589 50.0044 468.383 50.0102C469.178 50.0159 469.948 49.7373 470.554 49.2246C471.161 48.7119 471.563 47.999 471.69 47.215C477.333 46.4187 482.499 43.6132 486.239 39.3138C489.98 35.0144 492.043 29.5097 492.051 23.811Z" fill="#292A2E"/>
<path d="M429.58 23.811C429.539 17.5691 427.031 11.5967 422.603 7.19729C418.175 2.79789 412.186 0.328735 405.944 0.328735C399.702 0.328735 393.714 2.79789 389.286 7.19729C384.858 11.5967 382.35 17.5691 382.309 23.811H384.309C384.308 19.6589 385.502 15.5942 387.748 12.102C389.994 8.60991 393.198 5.83785 396.976 4.11671C400.755 2.39557 404.949 1.79805 409.058 2.39547C413.167 2.99288 417.017 4.76 420.149 7.4859C423.281 10.2118 425.563 13.7814 426.721 17.7686C427.88 21.7557 427.867 25.9921 426.684 29.9721C425.501 33.952 423.197 37.5075 420.048 40.214C416.9 42.9206 413.038 44.6639 408.926 45.236C408.58 44.522 407.989 43.9555 407.261 43.6391C406.533 43.3226 405.716 43.2771 404.958 43.5108C404.199 43.7445 403.55 44.2419 403.126 44.913C402.703 45.5842 402.533 46.3848 402.649 47.1699C402.764 47.9551 403.157 48.6731 403.756 49.1939C404.354 49.7147 405.12 50.004 405.913 50.0094C406.707 50.0149 407.476 49.7361 408.082 49.2236C408.688 48.711 409.091 47.9985 409.217 47.215C414.86 46.4192 420.027 43.6139 423.768 39.3144C427.508 35.0149 429.572 29.51 429.58 23.811Z" fill="#292A2E"/>
<path d="M367.108 23.811C367.108 20.7072 366.497 17.6338 365.309 14.7663C364.121 11.8987 362.38 9.29324 360.185 7.09853C357.991 4.90381 355.385 3.16287 352.518 1.9751C349.65 0.787331 346.577 0.175995 343.473 0.175995C340.369 0.175995 337.296 0.787331 334.428 1.9751C331.561 3.16287 328.955 4.90381 326.761 7.09853C324.566 9.29324 322.825 11.8987 321.637 14.7663C320.449 17.6338 319.838 20.7072 319.838 23.811H321.838C321.837 19.6592 323.031 15.5948 325.277 12.103C327.524 8.61121 330.727 5.83945 334.505 4.11853C338.284 2.39761 342.478 1.80022 346.586 2.39764C350.695 2.99507 354.545 4.76209 357.677 7.48781C360.808 10.2135 363.09 13.7828 364.248 17.7697C365.407 21.7566 365.394 25.9927 364.211 29.9724C363.028 33.9521 360.725 37.5074 357.576 40.2138C354.428 42.9203 350.567 44.6637 346.455 45.236C346.109 44.522 345.518 43.9555 344.79 43.6391C344.062 43.3226 343.245 43.2771 342.487 43.5108C341.728 43.7445 341.079 44.2419 340.655 44.913C340.232 45.5842 340.062 46.3848 340.178 47.1699C340.293 47.9551 340.686 48.6731 341.285 49.1939C341.883 49.7147 342.649 50.004 343.443 50.0094C344.236 50.0149 345.005 49.7361 345.611 49.2236C346.217 48.711 346.62 47.9985 346.746 47.215C352.389 46.419 357.555 43.6136 361.296 39.3141C365.037 35.0147 367.1 29.5099 367.108 23.811Z" fill="#292A2E"/>
<path d="M304.637 23.811C304.596 17.5691 302.088 11.5967 297.66 7.19729C293.232 2.79789 287.243 0.328735 281.001 0.328735C274.759 0.328735 268.771 2.79789 264.343 7.19729C259.915 11.5967 257.407 17.5691 257.366 23.811H259.366C259.365 19.6589 260.559 15.5942 262.805 12.102C265.051 8.60991 268.255 5.83785 272.033 4.11671C275.812 2.39557 280.006 1.79805 284.115 2.39547C288.224 2.99288 292.074 4.76 295.206 7.4859C298.338 10.2118 300.62 13.7814 301.778 17.7686C302.937 21.7557 302.924 25.9921 301.741 29.9721C300.558 33.952 298.254 37.5075 295.105 40.214C291.957 42.9206 288.096 44.6639 283.983 45.236C283.637 44.522 283.046 43.9555 282.318 43.6391C281.59 43.3226 280.773 43.2771 280.015 43.5108C279.256 43.7445 278.607 44.2419 278.183 44.913C277.76 45.5842 277.59 46.3848 277.706 47.1699C277.821 47.9551 278.214 48.6731 278.813 49.1939C279.411 49.7147 280.177 50.004 280.97 50.0094C281.764 50.0149 282.533 49.7361 283.139 49.2236C283.745 48.711 284.148 47.9985 284.274 47.215C289.917 46.4192 295.084 43.6139 298.825 39.3144C302.565 35.0149 304.629 29.51 304.637 23.811Z" fill="#292A2E"/>
<path d="M242.165 23.811C242.165 17.5426 239.675 11.5309 235.242 7.09853C230.81 2.6661 224.798 0.175995 218.53 0.175995C212.262 0.175995 206.25 2.6661 201.818 7.09853C197.385 11.5309 194.895 17.5426 194.895 23.811H196.895C196.894 19.6592 198.088 15.5948 200.334 12.103C202.581 8.61121 205.784 5.83945 209.562 4.11853C213.341 2.39761 217.535 1.80022 221.643 2.39764C225.752 2.99507 229.602 4.76209 232.734 7.48781C235.865 10.2135 238.147 13.7828 239.305 17.7697C240.464 21.7566 240.451 25.9927 239.268 29.9724C238.085 33.9521 235.782 37.5074 232.633 40.2138C229.485 42.9203 225.624 44.6637 221.512 45.236C221.166 44.522 220.575 43.9555 219.847 43.6391C219.119 43.3226 218.302 43.2771 217.544 43.5108C216.785 43.7445 216.136 44.2419 215.712 44.913C215.289 45.5842 215.119 46.3848 215.235 47.1699C215.35 47.9551 215.743 48.6731 216.342 49.1939C216.94 49.7147 217.706 50.004 218.5 50.0094C219.293 50.0149 220.063 49.7361 220.668 49.2236C221.274 48.711 221.677 47.9985 221.803 47.215C227.446 46.419 232.612 43.6136 236.353 39.3141C240.094 35.0147 242.157 29.5099 242.165 23.811Z" fill="#292A2E"/>
<path d="M179.694 23.811C179.653 17.5691 177.145 11.5967 172.717 7.19729C168.289 2.79789 162.3 0.328735 156.058 0.328735C149.816 0.328735 143.828 2.79789 139.4 7.19729C134.972 11.5967 132.464 17.5691 132.423 23.811H134.423C134.422 19.6589 135.616 15.5942 137.862 12.102C140.108 8.60991 143.312 5.83785 147.09 4.11671C150.869 2.39557 155.063 1.79805 159.172 2.39547C163.281 2.99288 167.131 4.76 170.263 7.4859C173.395 10.2118 175.677 13.7814 176.835 17.7686C177.994 21.7557 177.981 25.9921 176.798 29.9721C175.615 33.952 173.311 37.5075 170.162 40.214C167.014 42.9206 163.152 44.6639 159.04 45.236C158.694 44.522 158.103 43.9555 157.375 43.6391C156.647 43.3226 155.83 43.2771 155.072 43.5108C154.313 43.7445 153.664 44.2419 153.24 44.913C152.817 45.5842 152.647 46.3848 152.763 47.1699C152.878 47.9551 153.271 48.6731 153.87 49.1939C154.468 49.7147 155.234 50.004 156.027 50.0094C156.821 50.0149 157.59 49.7361 158.196 49.2236C158.802 48.711 159.205 47.9985 159.331 47.215C164.974 46.4192 170.141 43.6139 173.882 39.3144C177.622 35.0149 179.686 29.51 179.694 23.811Z" fill="#292A2E"/>
</g>
<g opacity="0.72">
<path d="M545.416 146.48H76.342C76.0768 146.48 75.8224 146.375 75.6349 146.187C75.4473 146 75.342 145.745 75.342 145.48C75.342 145.215 75.4473 144.96 75.6349 144.773C75.8224 144.585 76.0768 144.48 76.342 144.48H545.416C545.681 144.48 545.936 144.585 546.123 144.773C546.311 144.96 546.416 145.215 546.416 145.48C546.416 145.745 546.311 146 546.123 146.187C545.936 146.375 545.681 146.48 545.416 146.48Z" fill="#292A2E"/>
</g>
<g opacity="0.72">
<path d="M545.416 203.175H76.342C76.0768 203.175 75.8224 203.07 75.6349 202.882C75.4473 202.695 75.342 202.44 75.342 202.175C75.342 201.91 75.4473 201.655 75.6349 201.468C75.8224 201.28 76.0768 201.175 76.342 201.175H545.416C545.681 201.175 545.936 201.28 546.123 201.468C546.311 201.655 546.416 201.91 546.416 202.175C546.416 202.44 546.311 202.695 546.123 202.882C545.936 203.07 545.681 203.175 545.416 203.175Z" fill="#292A2E"/>
</g>
<g opacity="0.72">
<path d="M280.744 259.871H76.344C76.0788 259.871 75.8244 259.766 75.6369 259.578C75.4494 259.391 75.344 259.136 75.344 258.871C75.344 258.606 75.4494 258.351 75.6369 258.164C75.8244 257.976 76.0788 257.871 76.344 257.871H280.744C281.009 257.871 281.264 257.976 281.451 258.164C281.639 258.351 281.744 258.606 281.744 258.871C281.744 259.136 281.639 259.391 281.451 259.578C281.264 259.766 281.009 259.871 280.744 259.871Z" fill="#292A2E"/>
</g>
<path d="M768.851 442.024C773.274 442.023 777.631 440.954 781.552 438.907C785.473 436.861 788.841 433.897 791.37 430.269C793.899 426.64 795.514 422.454 796.077 418.068C796.641 413.681 796.136 409.223 794.606 405.073C793.052 400.86 756.632 304.417 749.699 286.548L698.36 307.348C702.26 317.396 716.383 355.48 727.73 386.159L708.879 384.11L702.945 438.7L765.88 441.867C766.867 441.973 767.859 442.025 768.851 442.024Z" fill="#3454D1"/>
<path d="M317.376 306.501L336.352 238.663L783.455 358.096L764.479 425.934L317.376 306.501Z" fill="#3454D1"/>
<path opacity="0.5" d="M317.376 306.501L336.352 238.663L783.455 358.096L764.479 425.934L317.376 306.501Z" fill="white"/>
<path d="M813.557 439.665L832.532 371.826L783.459 358.1L764.484 425.938L813.557 439.665Z" fill="#262626"/>
<path d="M317.376 306.5C317.376 306.5 304.5 292.069 293 279.1C283.882 268.813 275.634 259.445 275.381 258.932C275.128 258.419 287.516 254.224 301.2 249.798C317.825 244.416 336.355 238.665 336.355 238.665L317.376 306.5Z" fill="#3454D1"/>
<path opacity="0.9" d="M317.376 306.5C317.376 306.5 304.5 292.069 293 279.1C283.882 268.813 275.634 259.445 275.381 258.932C275.128 258.419 287.516 254.224 301.2 249.798C317.825 244.416 336.355 238.665 336.355 238.665L317.376 306.5Z" fill="white"/>
<path d="M293 279.1C283.882 268.813 275.634 259.445 275.381 258.932C275.128 258.419 287.516 254.224 301.2 249.798L293 279.1Z" fill="#262626"/>
<path d="M323.414 285.414L770.636 403.582L769.781 406.68L322.558 288.513L323.414 285.414Z" fill="white"/>
<path d="M330.827 258.871L778.05 377.038L777.194 380.136L329.972 261.969L330.827 258.871Z" fill="white"/>
<path d="M710.573 865.2C710.573 865.2 706.058 888.6 684.145 889.909C662.232 891.218 666.984 908.67 666.984 908.67H750.723V866.835L710.573 865.2Z" fill="#3454D1"/>
<path d="M736.4 438.273C736.4 438.273 736.137 431.237 736.193 447.197C736.4 506.726 737.433 574.722 739.957 614.511C744.014 678.475 754.416 880.14 754.416 880.14L699.391 879.678L646.06 435.854L736.4 438.273Z" fill="#262626"/>
<path d="M674.262 508.471C674.262 508.471 671.982 551.671 671.562 561.813C670.584 585.268 670.244 609.552 670.244 637.085L661.571 564.905C661.571 564.905 667.915 542.285 674.262 508.471Z" fill="#0A0A0A"/>
<path d="M612.612 865.2C612.612 865.2 608.097 888.6 586.184 889.909C564.271 891.218 569.022 908.67 569.022 908.67H652.762V866.835L612.612 865.2Z" fill="#3454D1"/>
<path d="M585.968 442.9C585.968 442.9 581.095 646.356 581.809 656.3L602.272 878.6L656.389 879.6L651.115 648.257C651.115 648.257 654.835 584.441 670.254 525.184C678.143 494.771 682.891 463.628 684.422 432.246L585.968 442.9Z" fill="#262626"/>
<path d="M737 438.267L737.18 438.277C737.18 438.277 737.05 434.807 737 438.267Z" fill="#333333"/>
<path d="M578.222 329.964C579.357 343.296 584.878 426.474 585.968 442.895H736.341C737.19 428.084 737.334 363.912 740.555 334.949C743.63 307.311 753.334 292.881 748.912 284.711C741.686 271.357 721.94 263.64 708.476 261.817C700.254 260.704 687.889 259.906 687.889 259.906C687.889 259.906 686.842 281.087 661.876 282.266C627.89 283.866 630.16 259.906 629.991 259.906C624.491 259.906 594.037 263.024 587.339 268.952C569.328 284.893 575.814 301.711 578.222 329.964Z" fill="#3454D1"/>
<path d="M612.077 258.08C612.245 258.058 616.857 275.416 652.854 272.715C677.775 270.848 683.854 253.885 684.422 253.885C681.736 253.314 677.372 252.721 676.179 252.085C672.255 249.977 669.396 247.41 667.958 241.902C666.832 237.594 666.258 221.011 666.258 212.691L627.911 221.308C628.445 230.693 632.186 252.451 619.075 256.302C616.894 256.938 614.544 257.524 612.077 258.08Z" fill="#E98862"/>
<path d="M629.239 239.759C644.356 240.952 663.776 234.569 667.464 214.4L670.793 196.2C674.481 176.031 666.878 157.743 647.893 154.27C628.903 150.797 611.718 164.551 608.029 184.72L606.556 192.777C605.136 200.517 602.266 237.631 629.239 239.759Z" fill="#E98862"/>
<path d="M615.222 221.241C617.935 207.607 619.179 198.51 619.035 188.913C615.213 182.213 616.218 174.513 617.087 171.189C614.455 172.861 611.36 173.655 608.248 173.456C608.248 173.456 614.569 148.088 636.048 141.262C639.999 139.724 650.085 137.782 663.479 139.619C674.87 141.181 702.95 149.699 706.962 181.312V181.33C707.094 182.378 709.79 211.505 715.162 225.48C722.388 244.267 732.533 250.104 732.276 271.78C731.945 299.661 680.688 303.372 649.776 301.287C618.864 299.202 601.601 289.035 601.376 268.942C601.134 246.429 609.792 248.52 615.222 221.241Z" fill="#0A0A0A"/>
<path d="M739.554 334.917L735.859 442.882L736.859 442.916L740.554 334.952L739.554 334.917Z" fill="#0C0C0C"/>
<path d="M437.134 337.05L422.275 315.791C421.948 315.324 421.528 314.93 421.041 314.634C420.554 314.338 420.01 314.147 419.445 314.073C418.88 313.999 418.306 314.043 417.759 314.203C417.212 314.363 416.704 314.635 416.268 315.002C415.484 315.704 414.988 316.673 414.878 317.72C414.767 318.766 415.048 319.817 415.668 320.668L418.854 325.226L402.254 315.49C400.427 314.376 397.473 314.176 396.354 316.308C395.871 317.1 395.671 318.032 395.786 318.953C395.901 319.874 396.325 320.728 396.989 321.376C396.974 321.39 396.96 321.406 396.949 321.424C396.943 321.439 396.937 321.454 396.933 321.469L394.116 319.75C393.594 319.432 393.008 319.234 392.4 319.172C391.792 319.109 391.178 319.183 390.602 319.387C390.026 319.592 389.503 319.923 389.071 320.355C388.639 320.788 388.309 321.311 388.105 321.887C387.802 322.801 387.821 323.791 388.161 324.692C388.501 325.593 389.14 326.35 389.971 326.836L391.171 327.567C391.166 327.611 391.169 327.656 391.179 327.7C390.254 327.394 389.25 327.426 388.347 327.793C387.444 328.159 386.702 328.836 386.252 329.7C385.788 330.659 385.702 331.757 386.011 332.776C386.32 333.796 387.002 334.661 387.921 335.2L390.898 337.017C390.85 337.018 390.803 337.03 390.759 337.05C390.715 337.07 390.676 337.099 390.644 337.135C390.612 337.171 390.588 337.213 390.572 337.259C390.557 337.305 390.551 337.353 390.555 337.401C389.657 337.358 388.769 337.611 388.028 338.121C387.288 338.631 386.735 339.37 386.455 340.225C386.179 341.13 386.216 342.101 386.561 342.982C386.906 343.863 387.538 344.601 388.355 345.078L413.476 360.406C416.991 362.55 421.065 363.596 425.178 363.409C429.291 363.223 433.254 361.812 436.56 359.359C439.41 357.243 441.323 354.099 441.893 350.595C442.462 347.092 441.643 343.504 439.61 340.594L437.134 337.05Z" fill="#E98862"/>
<g opacity="0.2">
<path d="M413.377 331.1C413.325 331.184 413.242 331.244 413.146 331.268C413.05 331.291 412.948 331.276 412.863 331.226L397.089 321.947C397.006 321.894 396.947 321.811 396.924 321.716C396.901 321.62 396.916 321.52 396.966 321.435C397.016 321.35 397.096 321.288 397.191 321.262C397.286 321.236 397.387 321.247 397.473 321.294L413.248 330.574C413.291 330.599 413.328 330.633 413.358 330.672C413.388 330.712 413.41 330.757 413.422 330.805C413.435 330.853 413.438 330.903 413.431 330.953C413.424 331.002 413.407 331.049 413.382 331.092L413.377 331.1Z" fill="#0C0C0C"/>
</g>
<g opacity="0.2">
<path d="M409.477 338.165C409.425 338.249 409.342 338.309 409.246 338.333C409.15 338.357 409.048 338.341 408.963 338.291L391.363 327.936C391.32 327.911 391.283 327.877 391.253 327.837C391.223 327.798 391.201 327.752 391.189 327.704C391.176 327.656 391.173 327.606 391.18 327.557C391.187 327.507 391.204 327.46 391.229 327.417C391.282 327.333 391.365 327.272 391.462 327.248C391.558 327.223 391.66 327.235 391.747 327.283L409.347 337.638C409.433 337.689 409.496 337.773 409.521 337.87C409.547 337.967 409.532 338.07 409.482 338.157L409.477 338.165Z" fill="#0C0C0C"/>
</g>
<g opacity="0.2">
<path d="M405.3 345.846C405.248 345.93 405.165 345.99 405.069 346.014C404.973 346.038 404.872 346.023 404.787 345.973L390.744 337.713C390.661 337.66 390.602 337.577 390.579 337.482C390.556 337.386 390.571 337.286 390.621 337.201C390.67 337.116 390.751 337.054 390.846 337.028C390.94 337.002 391.042 337.013 391.128 337.06L405.171 345.32C405.214 345.345 405.251 345.379 405.281 345.419C405.311 345.458 405.333 345.504 405.345 345.552C405.358 345.6 405.361 345.65 405.354 345.699C405.347 345.749 405.33 345.796 405.305 345.839L405.3 345.846Z" fill="#0C0C0C"/>
</g>
<path d="M581.747 275.371L519.4 368.817L440.679 323.174L412.249 369.739L513.087 434.5C519.555 438.644 527.39 440.086 534.91 438.515C542.429 436.945 549.032 432.487 553.3 426.1L553.674 425.54L631.656 308.671L581.747 275.371Z" fill="#3454D1"/>
<path d="M581.937 384.348C581.847 384.348 581.758 384.323 581.68 384.277C581.603 384.23 581.539 384.163 581.496 384.083C581.454 384.003 581.434 383.914 581.438 383.823C581.443 383.733 581.472 383.645 581.522 383.57L597.964 359.092C598.04 358.986 598.154 358.914 598.282 358.891C598.409 358.867 598.541 358.895 598.649 358.967C598.757 359.04 598.833 359.152 598.86 359.279C598.887 359.406 598.863 359.539 598.794 359.649L582.352 384.127C582.306 384.195 582.244 384.251 582.172 384.289C582.1 384.328 582.019 384.348 581.937 384.348Z" fill="#0C0C0C"/>
</svg>
