<svg width="50" height="50" viewBox="0 0 50 50" fill="none" xmlns="http://www.w3.org/2000/svg">
<path d="M17.8884 28.9346C18.2586 29.231 18.4678 29.4509 18.5203 29.9296C18.5243 30.0022 18.5282 30.0748 18.5323 30.1497C18.5371 30.2325 18.5419 30.3152 18.5469 30.4005C18.5542 30.5345 18.5542 30.5345 18.5616 30.6712C18.5733 30.8618 18.585 31.0524 18.5968 31.2429C18.615 31.5422 18.6327 31.8415 18.649 32.1409C18.7438 33.8592 18.9351 35.1377 20.2425 36.3702C21.7098 37.5991 23.7474 37.97 25.6252 37.8623C27.4462 37.6703 29.2394 37.1129 30.4453 35.6817C31.0543 34.8602 31.245 34.0013 31.3002 33.0031C31.3121 32.8207 31.3239 32.6383 31.3358 32.4559C31.3535 32.1711 31.3707 31.8862 31.3873 31.6014C31.4038 31.3246 31.4219 31.0479 31.4402 30.7711C31.4447 30.6865 31.4491 30.6018 31.4537 30.5146C31.4929 29.9386 31.5842 29.4595 32.0387 29.0537C32.4483 28.8141 32.7919 28.7958 33.2603 28.8343C33.6887 28.9778 33.911 29.1253 34.1333 29.5211C34.3527 30.0453 34.32 30.5833 34.3153 31.1418C34.3154 31.3157 34.3154 31.3157 34.3154 31.4931C34.3152 31.738 34.3142 31.9829 34.3125 32.2278C34.3101 32.5985 34.3104 32.9692 34.3111 33.3399C34.3066 37.1866 34.3066 37.1866 32.8767 38.7657C31.9457 39.8067 30.9069 41.5168 30.9057 42.9267C30.9052 43.0962 30.9052 43.0962 30.9047 43.269C30.9049 43.3916 30.9051 43.5141 30.9054 43.6404C30.9053 43.7673 30.9052 43.8942 30.9051 44.0249C30.905 44.2946 30.9051 44.5643 30.9056 44.834C30.9062 45.1744 30.9059 45.5148 30.9052 45.8552C30.9048 46.1849 30.9051 46.5145 30.9054 46.8441C30.9051 47.0237 30.9051 47.0237 30.9047 47.2069C30.9073 48.1446 30.9645 49.0594 31.0207 50C27.0566 50 23.0925 50 19.0082 50C19.0418 49.4041 19.0754 48.8083 19.11 48.1944C19.1351 47.364 19.1458 46.5341 19.1512 45.7034C19.1535 45.4494 19.1569 45.1954 19.1617 44.9414C19.1888 43.468 19.2006 42.2009 18.4992 40.8716C18.4658 40.8078 18.4325 40.7439 18.3981 40.6782C18.019 39.9578 17.5884 39.3188 17.0621 38.6934C15.911 37.3167 15.7364 35.8931 15.7299 34.159C15.7293 34.037 15.7288 33.915 15.7282 33.7894C15.7272 33.5328 15.7265 33.2763 15.7261 33.0197C15.7251 32.6275 15.722 32.2353 15.7188 31.843C15.7181 31.5931 15.7176 31.3432 15.7172 31.0932C15.7159 30.9763 15.7147 30.8594 15.7134 30.7389C15.7162 29.7201 15.7162 29.7201 16.056 29.2355C16.6487 28.6814 17.1409 28.6654 17.8884 28.9346Z" fill="#3454D1"/>
<path d="M14.5289 35.7558C14.596 35.7558 14.6632 35.7558 14.7325 35.7558C14.7536 35.871 14.7747 35.9862 14.7965 36.1049C15.0124 37.205 15.2606 38.3331 16.1358 39.1205C16.3613 39.367 16.3613 39.367 16.3696 39.5931C16.2088 39.9952 16.0165 40.3787 15.8204 40.7651C14.9903 42.45 14.6924 44.122 14.6943 45.9938C14.6941 46.0611 14.694 46.1284 14.6938 46.1977C14.6941 47.239 14.7963 48.219 15.0506 49.23C15.1397 49.5988 15.1397 49.5988 15.1397 50C12.3513 50 9.56302 50 6.69021 50C6.79908 48.498 6.79908 48.498 6.86821 47.8757C7.02874 46.4145 7.06044 44.948 7.09741 43.4798C7.03022 43.4467 6.96303 43.4135 6.89381 43.3794C6.08892 44.0027 5.34167 44.6717 4.59733 45.3629C4.28223 45.6553 3.96105 45.939 3.63221 46.2164C3.47104 46.3556 3.31326 46.4986 3.15661 46.6427C3.00977 46.7777 3.00977 46.7777 2.85996 46.9154C2.72571 47.0403 2.72571 47.0403 2.58876 47.1678C2.24208 47.4493 1.91785 47.6701 1.46338 47.7179C0.879508 47.6512 0.587072 47.5072 0.17497 47.091C0.0489377 46.8426 0.0379554 46.6537 0.0222689 46.3762C0.0149201 46.285 0.00757142 46.1937 0 46.0996C0.113745 45.6135 0.440642 45.3364 0.785773 44.9844C0.90164 44.86 1.01736 44.7354 1.13293 44.6106C1.93529 43.7633 2.75478 42.9335 3.58529 42.113C3.72565 41.974 3.72565 41.974 3.86885 41.8322C4.33146 41.3774 4.79958 40.9364 5.29572 40.5172C5.51711 40.3288 5.7273 40.1296 5.93943 39.9312C7.50761 38.5424 9.35062 37.8915 11.4051 37.5526C12.6834 37.3388 13.5175 36.878 14.4271 35.9564C14.4606 35.8902 14.4942 35.824 14.5289 35.7558Z" fill="#3454D1"/>
<path d="M35.296 35.8561C35.4 35.9439 35.5039 36.0316 35.6078 36.1194C35.7058 36.2016 35.7058 36.2016 35.8058 36.2855C35.9341 36.3946 36.061 36.5052 36.186 36.6178C36.967 37.3129 37.727 37.5262 38.7527 37.7221C40.9634 38.1455 42.6964 38.8084 44.3563 40.3701C44.4871 40.4817 44.6185 40.5925 44.7508 40.7024C45.3045 41.1757 45.8132 41.6969 46.3278 42.2108C46.7016 42.5828 47.0785 42.9517 47.4565 43.3195C47.6899 43.5468 47.9227 43.7746 48.1556 44.0025C48.2782 44.1223 48.401 44.2419 48.524 44.3614C48.7028 44.5352 48.881 44.7096 49.059 44.8841C49.1137 44.937 49.1685 44.9899 49.2248 45.0444C49.6676 45.4806 49.9988 45.8487 49.9999 46.4828C49.9848 46.9563 49.8762 47.2334 49.5481 47.5925C49.2592 47.7653 49.0324 47.8249 48.6955 47.8308C48.6213 47.8336 48.547 47.8365 48.4705 47.8394C47.879 47.7281 47.4404 47.2543 47.0158 46.859C46.9081 46.7602 46.8004 46.6614 46.6925 46.5628C46.6409 46.5154 46.5892 46.468 46.536 46.4192C46.3533 46.253 46.1667 46.0915 45.9787 45.9311C45.654 45.6537 45.3355 45.3701 45.018 45.0847C44.923 44.9997 44.828 44.9146 44.7301 44.8269C44.5632 44.6774 44.3967 44.5275 44.2306 44.3771C44.1629 44.3168 44.0952 44.2566 44.0254 44.1945C43.9682 44.143 43.911 44.0915 43.8521 44.0385C43.5618 43.8191 43.2513 43.6541 42.9311 43.4798C42.9682 45.443 43.0843 47.3748 43.3119 49.3263C43.3383 49.5988 43.3383 49.5988 43.3383 50C40.55 50 37.7617 50 34.8888 50C35.0232 49.2386 35.1576 48.4773 35.296 47.6928C35.3307 47.1579 35.3552 46.6515 35.3469 46.1192C35.3457 45.9876 35.3445 45.8559 35.3432 45.7203C35.2968 43.4643 34.6245 41.5436 33.5654 39.5676C33.6171 39.5103 33.6688 39.453 33.7221 39.394C34.6423 38.326 35.0594 37.2205 35.296 35.8561Z" fill="#3454D1"/>
<path d="M25.4216 0.000983613C25.4888 0.00111292 25.556 0.00124223 25.6252 0.00137546C25.9202 0.0644089 26.0287 0.121796 26.236 0.345804C26.3005 0.675511 26.2913 1.00411 26.2884 1.33896C26.2891 1.44216 26.2898 1.54536 26.2905 1.65169C26.2924 1.99918 26.2913 2.3466 26.2903 2.69409C26.291 2.94253 26.2919 3.19097 26.2929 3.43941C26.295 4.04518 26.2951 4.65093 26.2943 5.25671C26.2937 5.74898 26.2938 6.24124 26.2944 6.73351C26.2945 6.80351 26.2946 6.87352 26.2947 6.94564C26.2949 7.08783 26.2951 7.23003 26.2953 7.37222C26.297 8.70644 26.2961 10.0406 26.2944 11.3749C26.2929 12.596 26.2944 13.8172 26.2973 15.0383C26.3003 16.2916 26.3014 17.5448 26.3004 18.798C26.3003 18.9398 26.3002 19.0815 26.3001 19.2232C26.3001 19.3278 26.3001 19.3278 26.3 19.4345C26.2998 19.9262 26.3008 20.4179 26.3022 20.9096C26.3042 21.5713 26.3035 22.233 26.301 22.8948C26.3005 23.138 26.3009 23.3813 26.3021 23.6246C26.3038 23.9559 26.3022 24.2871 26.2999 24.6184C26.3011 24.7154 26.3023 24.8124 26.3036 24.9123C26.2943 25.5614 26.2943 25.5614 25.9947 25.8847C24.9916 26.4125 23.2297 25.9086 22.1719 25.6212C19.3016 24.7381 16.7935 22.8244 15.3433 20.2075C13.8655 17.3447 13.5942 14.2022 14.5353 11.1269C15.0363 9.73841 15.7695 8.46215 16.7685 7.36761C16.8307 7.29209 16.8929 7.21658 16.957 7.13877C17.8267 6.10312 19.0081 5.25098 20.2297 4.6592C20.2969 4.6592 20.3641 4.6592 20.4333 4.6592C20.4333 4.59299 20.4333 4.52679 20.4333 4.45858C20.3704 4.43375 20.3074 4.40892 20.2425 4.38334C19.9787 4.23048 19.9117 4.14415 19.8225 3.85671C19.8372 3.50931 19.8892 3.30754 20.0834 3.0166C20.4341 2.78621 20.7422 2.78224 21.146 2.85359C21.5033 3.01119 21.8204 3.21573 22.1449 3.43038C22.2309 3.48443 22.3169 3.53848 22.4055 3.59417C23.1527 4.07367 23.1527 4.07367 23.3856 4.45858C23.4492 5.11432 23.1657 5.79466 22.9465 6.40211C22.9164 6.4912 22.8863 6.5803 22.8553 6.67209C22.8097 6.8003 22.8097 6.8003 22.7632 6.9311C22.7362 7.00783 22.7091 7.08455 22.6812 7.16361C22.5459 7.4144 22.4099 7.523 22.164 7.66854C21.7203 7.73213 21.5258 7.71846 21.1523 7.46792C20.8702 7.06363 20.9009 6.84615 20.9424 6.36449C18.5686 7.67831 16.9103 9.63209 16.1255 12.2029C15.5121 14.4283 15.7418 16.8354 16.7685 18.9034C16.811 18.9923 16.8536 19.0811 16.8974 19.1726C18.0711 21.4626 20.0286 22.8857 22.4113 23.7862C22.8396 23.9237 23.2778 23.9984 23.72 24.0778C23.7956 24.0915 23.8712 24.1053 23.9491 24.1195C24.1345 24.1532 24.3199 24.1866 24.5054 24.2199C24.5055 24.0978 24.5057 23.9756 24.5058 23.8498C24.5095 20.9513 24.5152 18.0529 24.5235 15.1545C24.5245 14.7979 24.5255 14.4413 24.5265 14.0847C24.5268 13.9782 24.5268 13.9782 24.5271 13.8696C24.5303 12.7194 24.532 11.5693 24.5332 10.4192C24.5344 9.23937 24.5372 8.05959 24.5415 6.87981C24.5438 6.21699 24.5454 5.55418 24.5453 4.89136C24.5452 4.26791 24.547 3.6445 24.5503 3.02107C24.5512 2.79187 24.5513 2.56266 24.5508 2.33346C24.5501 2.02124 24.5519 1.70912 24.5543 1.39691C24.5535 1.30558 24.5528 1.21425 24.5519 1.12014C24.5605 0.507901 24.5605 0.507901 24.8014 0.189178C25.0331 0.0321832 25.1434 -0.00704586 25.4216 0.000983613Z" fill="#3454D1"/>
<path d="M27.553 29.7559C28.2655 30.5403 28.5336 31.5077 28.4756 32.5458C28.2946 33.6835 27.7316 34.3689 26.8595 35.0975C25.7637 35.6374 24.766 35.6708 23.6158 35.3009C22.8819 34.9761 22.2191 34.3599 21.8586 33.6492C21.4598 32.5373 21.4428 31.6015 21.9635 30.5227C22.4492 29.687 23.1762 29.1371 24.0982 28.8343C25.3589 28.5352 26.5951 28.9062 27.553 29.7559Z" fill="#3454D1"/>
<path d="M23.073 8.02356C23.3817 8.09128 23.4939 8.23072 23.691 8.47104C23.7411 8.75227 23.7411 8.75227 23.7399 9.08291C23.7405 9.20838 23.7411 9.33385 23.7416 9.46312C23.7402 9.60189 23.7387 9.74065 23.7372 9.87942C23.7371 10.0257 23.7371 10.1721 23.7374 10.3184C23.7375 10.7155 23.7351 11.1125 23.7323 11.5096C23.7297 11.9246 23.7295 12.3396 23.729 12.7547C23.7277 13.5405 23.7244 14.3263 23.7203 15.1121C23.7157 16.0068 23.7135 16.9015 23.7115 17.7961C23.7072 19.6365 23.7 21.4768 23.691 23.3171C23.4787 23.2718 23.2667 23.2257 23.0547 23.1792C22.9366 23.1536 22.8185 23.128 22.6968 23.1016C22.4225 23.0305 22.2052 22.9529 21.9604 22.8156C21.9532 20.9932 21.9478 19.1708 21.9445 17.3484C21.943 16.5022 21.9408 15.6561 21.9373 14.8099C21.9343 14.0724 21.9323 13.3349 21.9316 12.5974C21.9312 12.2068 21.9303 11.8163 21.9281 11.4258C21.926 11.0582 21.9254 10.6906 21.9258 10.323C21.9257 10.1238 21.9241 9.92472 21.9224 9.72561C21.9228 9.60675 21.9232 9.4879 21.9236 9.36544C21.9234 9.26234 21.9231 9.15924 21.9228 9.05302C22.0178 8.34269 22.3761 8.05228 23.073 8.02356Z" fill="#3454D1"/>
<path d="M34.2783 16.2953C35.6892 16.2953 37.1002 16.2953 38.5539 16.2953C38.3172 18.1614 38.3172 18.1614 38.0767 18.8157C38.0368 18.9279 38.0368 18.9279 37.9961 19.0424C37.5484 20.2645 36.9378 21.3031 36.1107 22.314C36.0344 22.408 35.9582 22.5021 35.8796 22.5989C35.8215 22.6704 35.7634 22.7419 35.7035 22.8156C35.2954 22.6381 34.9483 22.3775 34.59 22.1197C34.1895 21.8322 33.7923 21.5547 33.3621 21.3109C33.3879 21.216 33.4138 21.1211 33.4404 21.0233C33.6363 20.2879 33.8082 19.5534 33.9347 18.8031C33.9516 18.7037 33.9516 18.7037 33.9688 18.6022C34.0931 17.8355 34.1804 17.0664 34.2783 16.2953Z" fill="#3454D1"/>
<path d="M35.3981 8.37073C35.6931 8.39411 35.8023 8.46817 36.0168 8.67284C37.5142 10.4906 38.3175 12.4611 38.5539 14.7907C37.1429 14.7907 35.732 14.7907 34.2783 14.7907C34.2111 14.2941 34.1439 13.7976 34.0747 13.286C34.03 12.9865 33.9847 12.688 33.9347 12.3895C33.9223 12.3156 33.9099 12.2417 33.8972 12.1656C33.7621 11.3914 33.5686 10.6337 33.3621 9.8754C33.4249 9.83286 33.4878 9.79032 33.5525 9.74648C34.5179 9.11121 34.5179 9.11121 35.3981 8.37073Z" fill="#3454D1"/>
<path d="M40.8217 31.6712C41.4696 32.3081 41.6419 32.8732 41.6473 33.7656C41.6322 34.4594 41.4237 34.906 40.9541 35.4094C40.2883 36.009 39.653 36.1155 38.7797 36.0908C38.0736 36.0173 37.6141 35.7733 37.135 35.2605C36.6538 34.6658 36.4805 34.063 36.5358 33.3024C36.6585 32.5073 37.0331 31.9583 37.6631 31.4549C38.654 30.8233 39.9293 30.9345 40.8217 31.6712Z" fill="#3454D1"/>
<path d="M12.1875 31.2418C12.755 31.6282 13.2337 32.0735 13.4091 32.7464C13.5004 33.5477 13.5074 34.2891 13.0019 34.9533C12.4871 35.5239 12.0081 35.9017 11.2188 35.9827C10.3936 36.0156 9.78639 35.8443 9.15257 35.3169C8.43899 34.4732 8.33671 33.8281 8.42087 32.7464C8.59146 32.0741 9.07745 31.6265 9.64248 31.2418C10.4508 30.7987 11.3792 30.7987 12.1875 31.2418Z" fill="#3454D1"/>
<path d="M20.8407 11.0791C21.0907 11.2955 21.2297 11.4714 21.2842 11.7997C21.2981 12.078 21.2982 12.3535 21.2941 12.6321C21.2942 12.7379 21.2942 12.8436 21.2943 12.9526C21.294 13.3016 21.2908 13.6505 21.2877 13.9995C21.2869 14.2417 21.2863 14.4839 21.2859 14.7261C21.2844 15.3631 21.2804 16.0002 21.2759 16.6372C21.2717 17.2874 21.2698 17.9376 21.2678 18.5878C21.2634 19.8633 21.2565 21.1388 21.2479 22.4143C20.8611 22.2681 20.5487 22.1004 20.2108 21.8626C20.1233 21.8016 20.0357 21.7406 19.9456 21.6777C19.7209 21.5115 19.7209 21.5115 19.5173 21.3109C19.496 21.0053 19.4874 20.7087 19.4877 20.4029C19.487 20.3088 19.4863 20.2146 19.4856 20.1177C19.4837 19.8053 19.4833 19.4929 19.4831 19.1805C19.4824 18.9638 19.4817 18.7471 19.481 18.5305C19.4798 18.0757 19.4794 17.6209 19.4796 17.1661C19.4796 16.5832 19.4768 16.0004 19.4733 15.4175C19.471 14.9697 19.4706 14.522 19.4707 14.0743C19.4705 13.8594 19.4696 13.6445 19.468 13.4296C19.466 13.1289 19.4666 12.8283 19.4678 12.5277C19.4667 12.4388 19.4655 12.3499 19.4644 12.2584C19.4686 11.8495 19.4847 11.6334 19.7049 11.277C20.0811 10.938 20.3661 10.9455 20.8407 11.0791Z" fill="#3454D1"/>
<path d="M27.8647 16.2953C29.4437 16.2953 31.0226 16.2953 32.6494 16.2953C32.6494 17.2119 32.6377 17.9724 32.4585 18.847C32.4408 18.9401 32.4231 19.0331 32.4048 19.129C32.307 19.6311 32.1901 20.1198 32.0386 20.6087C31.1973 20.4291 31.1973 20.4291 30.8611 20.3348C29.8729 20.062 28.8849 19.9949 27.8647 19.9066C27.8647 18.7149 27.8647 17.5232 27.8647 16.2953Z" fill="#3454D1"/>
<path d="M30.1986 1.18631C30.5433 1.45183 30.8624 1.74325 31.1836 2.03583C31.84 2.61629 32.4693 2.91242 33.3619 2.95391C33.7433 2.91428 34.11 2.8454 34.4817 2.75329C34.1417 3.45263 33.6277 4.01207 32.9257 4.37982C32.5608 4.48383 32.2114 4.48832 31.8349 4.48366C31.7585 4.48327 31.682 4.48289 31.6032 4.48249C31.0259 4.47378 30.4744 4.40073 29.9055 4.30381C28.9139 4.15725 28.1459 4.31408 27.1521 4.55889C27.1521 3.30099 27.1521 2.04308 27.1521 0.747058C28.1652 0.604449 29.3074 0.62261 30.1986 1.18631Z" fill="#3454D1"/>
<path d="M32.0386 10.5776C32.4467 11.9889 32.6438 13.3098 32.7512 14.7907C31.1387 14.7907 29.5261 14.7907 27.8647 14.7907C27.8647 13.6321 27.8647 12.4735 27.8647 11.2798C28.3718 11.2177 28.3718 11.2177 28.8891 11.1544C29.7281 11.0468 30.5263 10.8942 31.3363 10.6548C31.6314 10.5776 31.6314 10.5776 32.0386 10.5776Z" fill="#3454D1"/>
<path d="M18.1018 13.5473C18.4004 13.6084 18.5289 13.7486 18.7026 13.9882C18.813 14.3145 18.8167 14.5508 18.816 14.8942C18.816 15.0187 18.816 15.1432 18.816 15.2714C18.8154 15.4073 18.8149 15.5431 18.8144 15.679C18.8142 15.818 18.814 15.957 18.8139 16.096C18.8135 16.4616 18.8125 16.8272 18.8114 17.1928C18.8104 17.566 18.8099 17.9392 18.8094 18.3123C18.8083 19.0444 18.8066 19.7764 18.8044 20.5084C18.1421 19.9864 18.1421 19.9864 17.9407 19.6464C17.883 19.5503 17.883 19.5503 17.8242 19.4524C17.7865 19.3871 17.7489 19.3218 17.7101 19.2545C17.6708 19.1892 17.6316 19.1239 17.5912 19.0566C17.1911 18.3815 17.0417 17.8702 17.0396 17.088C17.0389 17.0006 17.0383 16.9132 17.0376 16.8232C17.0365 16.639 17.0361 16.4547 17.0361 16.2705C17.0356 15.9887 17.0319 15.707 17.0281 15.4252C17.0275 15.246 17.0271 15.0667 17.0269 14.8874C17.0254 14.8033 17.024 14.7192 17.0225 14.6325C17.0271 14.0493 17.0271 14.0493 17.2676 13.7347C17.5636 13.5297 17.7503 13.5299 18.1018 13.5473Z" fill="#3454D1"/>
<path d="M27.8647 21.4112C29.1349 21.4112 29.1349 21.4112 29.818 21.5429C29.8874 21.5562 29.9568 21.5696 30.0282 21.5834C30.5194 21.6822 30.9693 21.8154 31.4278 22.0131C31.0468 23.2909 30.0964 24.3797 28.9305 25.0315C28.6792 25.1227 28.6792 25.1227 27.8647 25.2231C27.8647 23.9652 27.8647 22.7072 27.8647 21.4112Z" fill="#3454D1"/>
<path d="M27.8647 5.96326C29.0185 6.08958 29.6706 6.42391 30.4137 7.29513C30.8012 7.82529 31.1154 8.3972 31.4278 8.9726C31.152 9.33839 30.7608 9.39218 30.3334 9.4867C30.2309 9.51211 30.2309 9.51211 30.1262 9.53803C29.3621 9.71285 28.675 9.72187 27.8647 9.77509C27.8647 8.51719 27.8647 7.25928 27.8647 5.96326Z" fill="#3454D1"/>
<path d="M30.7151 5.46167C32.0456 5.72833 33.2901 6.37945 34.3799 7.16697C34.2242 7.56671 33.9748 7.75106 33.6291 8.0008C33.5318 8.07283 33.4344 8.14485 33.3341 8.21906C33.0565 8.3707 33.0565 8.3707 32.8406 8.38363C32.5422 8.207 32.4267 7.92738 32.2739 7.63091C31.9419 7.02042 31.5699 6.51019 31.1104 5.984C30.9187 5.7626 30.9187 5.7626 30.7151 5.46167Z" fill="#3454D1"/>
<path d="M32.7511 22.7153C33.1737 22.8599 33.4942 23.0665 33.8518 23.3297C33.9512 23.4024 34.0505 23.475 34.1528 23.5499C34.2278 23.6055 34.3027 23.6611 34.3799 23.7184C34.2281 24.1593 33.8898 24.335 33.5019 24.5585C33.4351 24.5975 33.3682 24.6364 33.2994 24.6766C32.8021 24.9571 32.294 25.1858 31.7585 25.3861C31.6894 25.4121 31.6203 25.4381 31.5491 25.465C31.0603 25.6374 31.0603 25.6374 30.7151 25.524C30.7656 25.4789 30.8161 25.4337 30.8682 25.3872C31.6913 24.6193 32.2198 23.6924 32.7511 22.7153Z" fill="#3454D1"/>
</svg>
