<svg width="720" height="723" viewBox="0 0 720 723" fill="none" xmlns="http://www.w3.org/2000/svg">
<g clip-path="url(#clip0_82_3039)">
<path d="M131.744 643.254L127.372 626.005C119.619 622.719 111.687 619.873 103.614 617.481L103.062 625.496L100.824 616.666C90.8121 613.804 84.0001 612.545 84.0001 612.545C84.0001 612.545 93.2001 647.532 112.5 674.28L134.986 678.23L117.517 680.749C119.945 683.67 122.553 686.435 125.328 689.029C153.4 715.086 184.668 727.042 195.166 715.729C205.664 704.416 191.417 674.129 163.344 648.073C154.644 639.995 143.709 633.513 132.765 628.409L131.744 643.254Z" fill="#F2F2F2"/>
<path d="M173.328 624.522L178.499 607.499C173.561 600.679 168.242 594.142 162.568 587.921L157.953 594.497L160.601 585.781C153.508 578.158 148.328 573.56 148.328 573.56C148.328 573.56 138.12 608.266 140.812 641.139L158.019 656.139L141.76 649.265C142.329 653.021 143.134 656.738 144.169 660.393C154.731 697.21 175.318 723.607 190.151 719.351C204.984 715.095 208.446 681.8 197.883 644.983C194.609 633.569 188.6 622.369 181.87 612.345L173.328 624.522Z" fill="#F2F2F2"/>
<path d="M539.014 171.097H535.058V62.725C535.058 46.0898 528.45 30.1359 516.687 18.3728C504.925 6.60965 488.971 0.000795625 472.336 0H242.723C226.087 0 210.133 6.60851 198.37 18.3717C186.607 30.1349 179.998 46.0893 179.998 62.725V657.274C179.998 665.511 181.62 673.668 184.773 681.278C187.925 688.888 192.545 695.803 198.37 701.627C204.194 707.452 211.109 712.072 218.719 715.224C226.329 718.377 234.486 719.999 242.723 719.999H472.336C488.971 719.999 504.925 713.39 516.688 701.627C528.451 689.864 535.06 673.91 535.06 657.275V248.238H539.016L539.014 171.097Z" fill="#E6E6E6"/>
<path d="M474.864 16.313H444.895C446.273 19.6923 446.799 23.3587 446.427 26.9892C446.054 30.6197 444.794 34.1028 442.758 37.1317C440.723 40.1606 437.973 42.6424 434.752 44.3584C431.531 46.0744 427.938 46.972 424.288 46.972H292.747C289.097 46.9721 285.504 46.0746 282.283 44.3586C279.062 42.6425 276.312 40.1606 274.276 37.1315C272.24 34.1023 270.981 30.619 270.608 26.9884C270.236 23.3578 270.762 19.6913 272.141 16.312H244.149C231.726 16.312 219.811 21.2472 211.026 30.032C202.241 38.8168 197.306 50.7315 197.306 63.155V656.841C197.306 669.265 202.241 681.179 211.026 689.964C219.811 698.749 231.726 703.684 244.149 703.684H474.864C487.288 703.684 499.202 698.749 507.987 689.964C516.772 681.179 521.707 669.265 521.707 656.841V63.154C521.707 50.7308 516.772 38.8165 507.987 30.032C499.203 21.2475 487.288 16.3123 474.865 16.312L474.864 16.313Z" fill="white"/>
<path d="M428.365 326.634H290.602C289.291 326.632 288.033 326.111 287.106 325.183C286.178 324.256 285.657 322.999 285.655 321.687V183.925C285.658 182.614 286.18 181.358 287.107 180.431C288.034 179.505 289.291 178.984 290.602 178.982H428.365C429.677 178.984 430.934 179.505 431.861 180.433C432.789 181.36 433.31 182.617 433.312 183.929V321.682C433.31 322.994 432.789 324.251 431.861 325.178C430.934 326.106 429.677 326.627 428.365 326.629V326.634ZM290.602 180.958C289.815 180.959 289.061 181.272 288.504 181.828C287.948 182.385 287.635 183.139 287.634 183.926V321.688C287.635 322.475 287.948 323.229 288.504 323.786C289.061 324.342 289.815 324.655 290.602 324.656H428.365C429.152 324.655 429.906 324.342 430.463 323.786C431.019 323.229 431.332 322.475 431.333 321.688V183.926C431.332 183.139 431.019 182.385 430.463 181.828C429.906 181.272 429.152 180.959 428.365 180.958H290.602Z" fill="#CCCCCC"/>
<path d="M459.125 432.234H247.841V434.213H459.125V432.234Z" fill="#CCCCCC"/>
<path d="M254.513 419.878C258.198 419.878 261.185 416.891 261.185 413.206C261.185 409.521 258.198 406.534 254.513 406.534C250.828 406.534 247.841 409.521 247.841 413.206C247.841 416.891 250.828 419.878 254.513 419.878Z" fill="#3454D1"/>
<path d="M459.125 498.955H247.841V500.934H459.125V498.955Z" fill="#CCCCCC"/>
<path d="M254.513 486.6C258.198 486.6 261.185 483.613 261.185 479.928C261.185 476.243 258.198 473.256 254.513 473.256C250.828 473.256 247.841 476.243 247.841 479.928C247.841 483.613 250.828 486.6 254.513 486.6Z" fill="#3454D1"/>
<path d="M455.258 574.934H388.486C387.333 574.933 386.227 574.474 385.411 573.658C384.596 572.843 384.137 571.737 384.136 570.584V547.184C384.137 546.031 384.596 544.925 385.411 544.109C386.227 543.294 387.333 542.835 388.486 542.834H455.258C456.411 542.835 457.517 543.294 458.332 544.109C459.148 544.925 459.607 546.031 459.608 547.184V570.584C459.607 571.737 459.148 572.843 458.332 573.658C457.517 574.474 456.411 574.933 455.258 574.934Z" fill="#3454D1"/>
<path d="M276.278 419.878C279.963 419.878 282.95 416.891 282.95 413.206C282.95 409.521 279.963 406.534 276.278 406.534C272.593 406.534 269.606 409.521 269.606 413.206C269.606 416.891 272.593 419.878 276.278 419.878Z" fill="#3454D1"/>
<path d="M298.043 419.878C301.728 419.878 304.715 416.891 304.715 413.206C304.715 409.521 301.728 406.534 298.043 406.534C294.358 406.534 291.371 409.521 291.371 413.206C291.371 416.891 294.358 419.878 298.043 419.878Z" fill="#3454D1"/>
<path d="M276.278 486.6C279.963 486.6 282.95 483.613 282.95 479.928C282.95 476.243 279.963 473.256 276.278 473.256C272.593 473.256 269.606 476.243 269.606 479.928C269.606 483.613 272.593 486.6 276.278 486.6Z" fill="#3454D1"/>
<path d="M298.043 486.6C301.728 486.6 304.715 483.613 304.715 479.928C304.715 476.243 301.728 473.256 298.043 473.256C294.358 473.256 291.371 476.243 291.371 479.928C291.371 483.613 294.358 486.6 298.043 486.6Z" fill="#3454D1"/>
<path d="M717.232 722.539H2.76801C1.23901 722.539 0 721.993 0 721.321C0 720.649 1.23901 720.102 2.76801 720.102H717.232C718.76 720.102 720 720.648 720 721.321C720 721.994 718.76 722.539 717.232 722.539Z" fill="#E6E6E6"/>
<path d="M625.753 452.901L608.953 486.158L558.731 508.992C553.367 518.057 536.322 518.751 535.082 512.892C533.691 506.316 555.782 495.731 555.782 495.731L597.794 467.315L601.47 442.852L625.753 452.901Z" fill="#FFB9B9"/>
<path d="M623.771 676.078L626.869 700.863L608.9 702.103L607.042 676.08L623.771 676.078Z" fill="#FFB9B9"/>
<path d="M621.293 697.145C622.9 695.446 624.382 693.634 625.727 691.723C628.302 688.159 630.587 706.439 630.587 706.439C630.587 706.439 633.066 713.874 632.446 717.592C631.826 721.31 617.576 721.31 615.097 720.692C612.618 720.074 600.227 720.692 600.227 720.692H581.639C565.529 713.257 581.639 708.3 581.639 708.3C586.596 707.68 603.325 692.19 603.325 692.19L607.043 685.375C609.521 684.755 612 694.049 612 694.049L621.293 697.145Z" fill="#090814"/>
<path d="M670.243 676.388L673.343 701.172L655.374 702.412L653.515 676.388H670.243Z" fill="#FFB9B9"/>
<path d="M667.762 697.455C669.368 695.756 670.85 693.944 672.196 692.033C674.771 688.469 677.056 706.749 677.056 706.749C677.056 706.749 679.534 713.565 678.915 717.282C678.296 720.999 664.045 720.999 661.566 720.382C659.087 719.765 646.696 721.002 646.696 721.002H628.108C611.998 713.567 628.108 708.61 628.108 708.61C633.065 707.99 649.794 692.5 649.794 692.5L653.512 685.685C655.99 685.065 658.469 694.359 658.469 694.359L667.762 697.455Z" fill="#090814"/>
<path d="M649.792 516.532C652.271 519.632 651.031 530.163 651.031 530.163C651.031 530.163 655.368 564.241 653.509 567.339C651.65 570.437 654.748 572.915 656.609 577.253C658.47 581.591 660.327 592.123 660.327 592.123C670.86 600.797 670.241 640.452 670.241 640.452L673.958 675.769C672.719 679.487 655.37 680.106 652.892 679.487C650.414 678.868 642.978 623.103 642.978 623.103L626.249 591.503C626.249 591.503 627.488 675.768 627.488 679.486C627.488 683.204 610.759 681.345 607.041 681.345C603.323 681.345 603.323 619.385 603.323 619.385L599.605 603.276L579.778 529.544V520.867L582.878 516.53C582.878 516.53 647.314 513.434 649.792 516.532Z" fill="#090814"/>
<path d="M622.533 375.884C633.141 375.884 641.741 367.284 641.741 356.676C641.741 346.068 633.141 337.468 622.533 337.468C611.925 337.468 603.325 346.068 603.325 356.676C603.325 367.284 611.925 375.884 622.533 375.884Z" fill="#FFB9B9"/>
<path d="M612.93 365.659C616.823 374.329 614.517 386.438 606.729 399.737L638.33 384.867L633.372 380.53L634.612 368.138L612.93 365.659Z" fill="#FFB9B9"/>
<path d="M612.927 385.487C608.789 387.947 606.314 392.467 604.893 397.067C602.262 405.582 600.678 414.387 600.177 423.285L598.677 449.925L580.089 520.56C596.198 534.191 605.489 531.093 627.178 519.94C648.867 508.787 651.343 523.66 651.343 523.66C651.343 523.66 653.202 523.04 651.343 521.182C649.484 519.324 651.343 521.182 653.202 519.323C655.061 517.464 653.202 519.323 652.582 517.464C651.962 515.605 652.582 516.844 653.202 516.225C653.822 515.606 650.724 510.025 650.724 510.025L655.681 463.555L661.881 397.878C654.446 388.584 633.381 380.529 633.381 380.529L614.167 394.16C607.967 396.638 612.928 386.725 612.928 386.725L612.927 385.487Z" fill="#3454D1"/>
<path d="M672.099 437.223L674.577 474.399L642.977 519.63C642.977 530.163 637.401 532.642 637.401 532.642C635.289 529.271 633.425 525.751 631.825 522.109C628.725 515.293 633.684 509.717 633.684 509.717L655.37 463.867L646.076 440.942L672.099 437.223Z" fill="#FFB9B9"/>
<path d="M661.571 398.189C672.104 401.907 673.963 442.181 673.963 442.181C661.571 435.365 646.701 446.518 646.701 446.518C646.701 446.518 643.601 435.985 639.885 422.354C638.762 418.52 638.628 414.464 639.495 410.564C640.361 406.663 642.201 403.046 644.842 400.048C644.842 400.048 651.034 394.472 661.571 398.189Z" fill="#3454D1"/>
<path d="M640.19 362.561C637.745 360.605 634.409 364.161 634.409 364.161L632.453 346.555C632.453 346.555 620.227 348.022 612.402 346.066C604.577 344.11 603.355 353.157 603.355 353.157C602.952 349.505 602.87 345.824 603.11 342.157C603.599 337.757 609.957 333.357 621.205 330.42C632.453 327.483 638.321 340.201 638.321 340.201C646.142 344.11 642.635 364.518 640.19 362.561Z" fill="#090814"/>
<g clip-path="url(#clip1_82_3039)">
<path d="M345.777 260.869C346.517 261.462 346.936 261.902 347.041 262.859C347.049 263.004 347.056 263.15 347.065 263.299C347.074 263.465 347.084 263.63 347.094 263.801C347.108 264.069 347.108 264.069 347.123 264.342C347.147 264.724 347.17 265.105 347.194 265.486C347.23 266.084 347.265 266.683 347.298 267.282C347.488 270.718 347.87 273.275 350.485 275.74C353.42 278.198 357.495 278.94 361.25 278.725C364.892 278.341 368.479 277.226 370.891 274.363C372.109 272.72 372.49 271.003 372.6 269.006C372.624 268.641 372.648 268.277 372.672 267.912C372.707 267.342 372.741 266.772 372.775 266.203C372.808 265.649 372.844 265.096 372.88 264.542C372.889 264.373 372.898 264.204 372.907 264.029C372.986 262.877 373.168 261.919 374.077 261.107C374.897 260.628 375.584 260.592 376.521 260.669C377.377 260.956 377.822 261.251 378.267 262.042C378.705 263.091 378.64 264.167 378.631 265.284C378.631 265.631 378.631 265.631 378.631 265.986C378.63 266.476 378.628 266.966 378.625 267.456C378.62 268.197 378.621 268.938 378.622 269.68C378.613 277.373 378.613 277.373 375.753 280.531C373.891 282.613 371.814 286.034 371.811 288.853C371.81 289.192 371.81 289.192 371.809 289.538C371.81 289.783 371.81 290.028 371.811 290.281C371.811 290.535 371.81 290.788 371.81 291.05C371.81 291.589 371.81 292.129 371.811 292.668C371.812 293.349 371.812 294.03 371.81 294.71C371.81 295.37 371.81 296.029 371.811 296.688C371.81 297.047 371.81 297.047 371.809 297.414C371.815 299.289 371.929 301.119 372.041 303C364.113 303 356.185 303 348.016 303C348.084 301.808 348.151 300.617 348.22 299.389C348.27 297.728 348.292 296.068 348.302 294.407C348.307 293.899 348.314 293.391 348.323 292.883C348.378 289.936 348.401 287.402 346.998 284.743C346.932 284.616 346.865 284.488 346.796 284.356C346.038 282.916 345.177 281.638 344.124 280.387C341.822 277.633 341.473 274.786 341.46 271.318C341.459 271.074 341.458 270.83 341.456 270.579C341.454 270.066 341.453 269.553 341.452 269.039C341.45 268.255 341.444 267.471 341.438 266.686C341.436 266.186 341.435 265.686 341.434 265.186C341.432 264.953 341.429 264.719 341.427 264.478C341.432 262.44 341.432 262.44 342.112 261.471C343.297 260.363 344.282 260.331 345.777 260.869Z" fill="#3454D1"/>
<path d="M339.058 274.512C339.192 274.512 339.326 274.512 339.465 274.512C339.507 274.742 339.549 274.972 339.593 275.21C340.025 277.41 340.521 279.666 342.272 281.241C342.723 281.734 342.723 281.734 342.739 282.186C342.418 282.99 342.033 283.757 341.641 284.53C339.981 287.9 339.385 291.244 339.389 294.988C339.388 295.122 339.388 295.257 339.388 295.395C339.388 297.478 339.593 299.438 340.101 301.46C340.279 302.198 340.279 302.198 340.279 303C334.703 303 329.126 303 323.38 303C323.598 299.996 323.598 299.996 323.736 298.751C324.057 295.829 324.121 292.896 324.195 289.96C324.06 289.893 323.926 289.827 323.788 289.759C322.178 291.005 320.683 292.343 319.195 293.726C318.564 294.311 317.922 294.878 317.264 295.433C316.942 295.711 316.627 295.997 316.313 296.285C316.02 296.555 316.02 296.555 315.72 296.831C315.451 297.081 315.451 297.081 315.178 297.336C314.484 297.899 313.836 298.34 312.927 298.436C311.759 298.302 311.174 298.014 310.35 297.182C310.098 296.685 310.076 296.307 310.045 295.752C310.03 295.57 310.015 295.387 310 295.199C310.227 294.227 310.881 293.673 311.572 292.969C311.803 292.72 312.035 292.471 312.266 292.221C313.871 290.527 315.51 288.867 317.171 287.226C317.451 286.948 317.451 286.948 317.738 286.664C318.663 285.755 319.599 284.873 320.591 284.034C321.034 283.658 321.455 283.259 321.879 282.862C325.015 280.085 328.701 278.783 332.81 278.105C335.367 277.678 337.035 276.756 338.854 274.913C338.921 274.78 338.988 274.648 339.058 274.512Z" fill="#3454D1"/>
<path d="M380.592 274.712C380.8 274.888 381.008 275.063 381.216 275.239C381.412 275.403 381.412 275.403 381.612 275.571C381.868 275.789 382.122 276.01 382.372 276.236C383.934 277.626 385.454 278.052 387.505 278.444C391.927 279.291 395.393 280.617 398.713 283.74C398.974 283.963 399.237 284.185 399.502 284.405C400.609 285.351 401.626 286.394 402.656 287.422C403.403 288.166 404.157 288.903 404.913 289.639C405.38 290.094 405.845 290.549 406.311 291.005C406.556 291.245 406.802 291.484 407.048 291.723C407.406 292.07 407.762 292.419 408.118 292.768C408.227 292.874 408.337 292.98 408.45 293.089C409.335 293.961 409.998 294.697 410 295.966C409.97 296.913 409.752 297.467 409.096 298.185C408.518 298.531 408.065 298.65 407.391 298.662C407.243 298.667 407.094 298.673 406.941 298.679C405.758 298.456 404.881 297.509 404.032 296.718C403.816 296.52 403.601 296.323 403.385 296.126C403.282 296.031 403.178 295.936 403.072 295.838C402.707 295.506 402.333 295.183 401.957 294.862C401.308 294.307 400.671 293.74 400.036 293.169C399.846 292.999 399.656 292.829 399.46 292.654C399.126 292.355 398.793 292.055 398.461 291.754C398.326 291.634 398.19 291.513 398.051 291.389C397.936 291.286 397.822 291.183 397.704 291.077C397.124 290.638 396.503 290.308 395.862 289.96C395.936 293.886 396.169 297.75 396.624 301.653C396.677 302.198 396.677 302.198 396.677 303C391.1 303 385.523 303 379.778 303C380.046 301.477 380.315 299.955 380.592 298.386C380.661 297.316 380.71 296.303 380.694 295.238C380.691 294.975 380.689 294.712 380.686 294.441C380.594 289.929 379.249 286.087 377.131 282.135C377.234 282.021 377.338 281.906 377.444 281.788C379.285 279.652 380.119 277.441 380.592 274.712Z" fill="#3454D1"/>
<path d="M360.843 203.002C360.978 203.002 361.112 203.002 361.25 203.003C361.84 203.129 362.057 203.244 362.472 203.692C362.601 204.351 362.583 205.008 362.577 205.678C362.578 205.884 362.58 206.091 362.581 206.303C362.585 206.998 362.583 207.693 362.581 208.388C362.582 208.885 362.584 209.382 362.586 209.879C362.59 211.09 362.59 212.302 362.589 213.513C362.587 214.498 362.588 215.482 362.589 216.467C362.589 216.607 362.589 216.747 362.589 216.891C362.59 217.176 362.59 217.46 362.591 217.744C362.594 220.413 362.592 223.081 362.589 225.75C362.586 228.192 362.589 230.634 362.595 233.077C362.601 235.583 362.603 238.09 362.601 240.596C362.601 240.88 362.6 241.163 362.6 241.446C362.6 241.656 362.6 241.656 362.6 241.869C362.6 242.852 362.602 243.836 362.604 244.819C362.608 246.143 362.607 247.466 362.602 248.79C362.601 249.276 362.602 249.763 362.604 250.249C362.608 250.912 362.604 251.574 362.6 252.237C362.602 252.431 362.605 252.625 362.607 252.825C362.589 254.123 362.589 254.123 361.989 254.769C359.983 255.825 356.459 254.817 354.344 254.242C348.603 252.476 343.587 248.649 340.687 243.415C337.731 237.689 337.188 231.404 339.071 225.254C340.073 222.477 341.539 219.924 343.537 217.735C343.661 217.584 343.786 217.433 343.914 217.278C345.653 215.206 348.016 213.502 350.459 212.318C350.594 212.318 350.728 212.318 350.867 212.318C350.867 212.186 350.867 212.054 350.867 211.917C350.741 211.868 350.615 211.818 350.485 211.767C349.957 211.461 349.823 211.288 349.645 210.713C349.674 210.019 349.778 209.615 350.167 209.033C350.868 208.572 351.484 208.564 352.292 208.707C353.007 209.022 353.641 209.431 354.29 209.861C354.462 209.969 354.634 210.077 354.811 210.188C356.305 211.147 356.305 211.147 356.771 211.917C356.898 213.229 356.331 214.589 355.893 215.804C355.833 215.982 355.773 216.161 355.711 216.344C355.619 216.601 355.619 216.601 355.526 216.862C355.472 217.016 355.418 217.169 355.362 217.327C355.092 217.829 354.82 218.046 354.328 218.337C353.441 218.464 353.052 218.437 352.305 217.936C351.74 217.127 351.802 216.692 351.885 215.729C347.137 218.357 343.821 222.264 342.251 227.406C341.024 231.857 341.484 236.671 343.537 240.807C343.622 240.985 343.707 241.162 343.795 241.345C346.142 245.925 350.057 248.771 354.823 250.572C355.679 250.847 356.556 250.997 357.44 251.156C357.591 251.183 357.742 251.211 357.898 251.239C358.269 251.306 358.64 251.373 359.011 251.44C359.011 251.196 359.011 250.951 359.012 250.7C359.019 244.903 359.03 239.106 359.047 233.309C359.049 232.596 359.051 231.883 359.053 231.169C359.054 230.956 359.054 230.956 359.054 230.739C359.061 228.439 359.064 226.139 359.066 223.838C359.069 221.479 359.074 219.119 359.083 216.76C359.088 215.434 359.091 214.108 359.091 212.783C359.09 211.536 359.094 210.289 359.101 209.042C359.102 208.584 359.103 208.125 359.102 207.667C359.1 207.042 359.104 206.418 359.109 205.794C359.107 205.611 359.106 205.428 359.104 205.24C359.121 204.016 359.121 204.016 359.603 203.378C360.066 203.064 360.287 202.986 360.843 203.002Z" fill="#3454D1"/>
<path d="M365.106 262.512C366.531 264.081 367.067 266.015 366.951 268.092C366.589 270.367 365.463 271.738 363.719 273.195C361.527 274.275 359.532 274.342 357.232 273.602C355.764 272.952 354.438 271.72 353.717 270.298C352.92 268.075 352.886 266.203 353.927 264.045C354.898 262.374 356.352 261.274 358.196 260.669C360.718 260.07 363.19 260.812 365.106 262.512Z" fill="#3454D1"/>
<path d="M356.146 219.047C356.763 219.183 356.988 219.461 357.382 219.942C357.482 220.505 357.482 220.505 357.48 221.166C357.481 221.417 357.482 221.668 357.483 221.926C357.48 222.204 357.477 222.481 357.474 222.759C357.474 223.051 357.474 223.344 357.475 223.637C357.475 224.431 357.47 225.225 357.465 226.019C357.459 226.849 357.459 227.679 357.458 228.509C357.455 230.081 357.449 231.653 357.441 233.224C357.431 235.014 357.427 236.803 357.423 238.592C357.414 242.273 357.4 245.954 357.382 249.634C356.957 249.544 356.533 249.451 356.109 249.358C355.873 249.307 355.637 249.256 355.394 249.203C354.845 249.061 354.41 248.906 353.921 248.631C353.906 244.986 353.896 241.342 353.889 237.697C353.886 236.004 353.882 234.312 353.875 232.62C353.869 231.145 353.865 229.67 353.863 228.195C353.862 227.414 353.861 226.633 353.856 225.852C353.852 225.116 353.851 224.381 353.852 223.646C353.851 223.248 353.848 222.849 353.845 222.451C353.846 222.213 353.846 221.976 353.847 221.731C353.847 221.525 353.846 221.318 353.846 221.106C354.036 219.685 354.752 219.105 356.146 219.047Z" fill="#3454D1"/>
<path d="M378.557 235.591C381.378 235.591 384.2 235.591 387.108 235.591C386.634 239.323 386.634 239.323 386.153 240.631C386.074 240.856 386.074 240.856 385.992 241.085C385.097 243.529 383.876 245.606 382.221 247.628C382.069 247.816 381.916 248.004 381.759 248.198C381.643 248.341 381.527 248.484 381.407 248.631C380.591 248.276 379.897 247.755 379.18 247.239C378.379 246.664 377.585 246.109 376.724 245.622C376.776 245.432 376.828 245.242 376.881 245.047C377.273 243.576 377.616 242.107 377.869 240.606C377.903 240.407 377.903 240.407 377.938 240.204C378.186 238.671 378.361 237.133 378.557 235.591Z" fill="#3454D1"/>
<path d="M380.796 219.741C381.386 219.788 381.605 219.936 382.034 220.346C385.028 223.981 386.635 227.922 387.108 232.581C384.286 232.581 381.464 232.581 378.557 232.581C378.422 231.588 378.288 230.595 378.149 229.572C378.06 228.973 377.969 228.376 377.869 227.779C377.845 227.631 377.82 227.483 377.794 227.331C377.524 225.783 377.137 224.267 376.724 222.751C376.85 222.666 376.976 222.581 377.105 222.493C379.036 221.222 379.036 221.222 380.796 219.741Z" fill="#3454D1"/>
<path d="M391.643 266.342C392.939 267.616 393.284 268.746 393.295 270.531C393.264 271.919 392.847 272.812 391.908 273.819C390.577 275.018 389.306 275.231 387.559 275.182C386.147 275.035 385.228 274.547 384.27 273.521C383.308 272.332 382.961 271.126 383.072 269.605C383.317 268.015 384.066 266.917 385.326 265.91C387.308 264.647 389.859 264.869 391.643 266.342Z" fill="#3454D1"/>
<path d="M334.375 265.484C335.51 266.256 336.467 267.147 336.818 268.493C337.001 270.095 337.015 271.578 336.004 272.907C334.974 274.048 334.016 274.803 332.438 274.965C330.787 275.031 329.573 274.689 328.305 273.634C326.878 271.946 326.673 270.656 326.842 268.493C327.183 267.148 328.155 266.253 329.285 265.484C330.902 264.597 332.758 264.597 334.375 265.484Z" fill="#3454D1"/>
<path d="M351.681 225.158C352.181 225.591 352.459 225.943 352.568 226.599C352.596 227.156 352.596 227.707 352.588 228.264C352.588 228.476 352.588 228.687 352.589 228.905C352.588 229.603 352.582 230.301 352.575 230.999C352.574 231.483 352.573 231.968 352.572 232.452C352.569 233.726 352.561 235 352.552 236.274C352.543 237.575 352.54 238.875 352.536 240.176C352.527 242.727 352.513 245.278 352.496 247.829C351.722 247.536 351.097 247.201 350.422 246.725C350.247 246.603 350.071 246.481 349.891 246.355C349.442 246.023 349.442 246.023 349.035 245.622C348.992 245.011 348.975 244.417 348.975 243.806C348.974 243.618 348.973 243.429 348.971 243.235C348.967 242.611 348.967 241.986 348.966 241.361C348.965 240.928 348.963 240.494 348.962 240.061C348.96 239.151 348.959 238.242 348.959 237.332C348.959 236.166 348.954 235.001 348.947 233.835C348.942 232.939 348.941 232.044 348.941 231.149C348.941 230.719 348.939 230.289 348.936 229.859C348.932 229.258 348.933 228.657 348.936 228.055C348.933 227.878 348.931 227.7 348.929 227.517C348.937 226.699 348.969 226.267 349.41 225.554C350.162 224.876 350.732 224.891 351.681 225.158Z" fill="#3454D1"/>
<path d="M365.729 235.591C368.887 235.591 372.045 235.591 375.299 235.591C375.299 237.424 375.275 238.945 374.917 240.694C374.882 240.88 374.846 241.066 374.81 241.258C374.614 242.262 374.38 243.24 374.077 244.217C372.395 243.858 372.395 243.858 371.722 243.67C369.746 243.124 367.77 242.99 365.729 242.813C365.729 240.43 365.729 238.046 365.729 235.591Z" fill="#3454D1"/>
<path d="M370.397 205.373C371.087 205.904 371.725 206.486 372.367 207.072C373.68 208.233 374.939 208.825 376.724 208.908C377.487 208.829 378.22 208.691 378.963 208.507C378.283 209.905 377.255 211.024 375.851 211.76C375.122 211.968 374.423 211.977 373.67 211.967C373.517 211.967 373.364 211.966 373.206 211.965C372.052 211.948 370.949 211.801 369.811 211.608C367.828 211.315 366.292 211.628 364.304 212.118C364.304 209.602 364.304 207.086 364.304 204.494C366.33 204.209 368.615 204.245 370.397 205.373Z" fill="#3454D1"/>
<path d="M374.077 224.155C374.893 226.978 375.288 229.62 375.502 232.581C372.277 232.581 369.052 232.581 365.729 232.581C365.729 230.264 365.729 227.947 365.729 225.56C366.744 225.435 366.744 225.435 367.778 225.309C369.456 225.094 371.053 224.788 372.673 224.31C373.263 224.155 373.263 224.155 374.077 224.155Z" fill="#3454D1"/>
<path d="M346.204 230.095C346.801 230.217 347.058 230.497 347.405 230.976C347.626 231.629 347.633 232.102 347.632 232.788C347.632 233.037 347.632 233.286 347.632 233.543C347.631 233.815 347.63 234.086 347.629 234.358C347.628 234.636 347.628 234.914 347.628 235.192C347.627 235.923 347.625 236.654 347.623 237.386C347.621 238.132 347.62 238.878 347.619 239.625C347.617 241.089 347.613 242.553 347.609 244.017C346.284 242.973 346.284 242.973 345.881 242.293C345.766 242.101 345.766 242.101 345.648 241.905C345.573 241.774 345.498 241.644 345.42 241.509C345.342 241.378 345.263 241.248 345.182 241.113C344.382 239.763 344.083 238.74 344.079 237.176C344.078 237.001 344.077 236.826 344.075 236.646C344.073 236.278 344.072 235.909 344.072 235.541C344.071 234.977 344.064 234.414 344.056 233.85C344.055 233.492 344.054 233.133 344.054 232.775C344.051 232.607 344.048 232.438 344.045 232.265C344.054 231.099 344.054 231.099 344.535 230.469C345.127 230.059 345.501 230.06 346.204 230.095Z" fill="#3454D1"/>
<path d="M365.729 245.822C368.27 245.822 368.27 245.822 369.636 246.086C369.775 246.112 369.914 246.139 370.056 246.167C371.039 246.364 371.939 246.631 372.856 247.026C372.094 249.582 370.193 251.759 367.861 253.063C367.358 253.245 367.358 253.245 365.729 253.446C365.729 250.93 365.729 248.414 365.729 245.822Z" fill="#3454D1"/>
<path d="M365.729 214.927C368.037 215.179 369.341 215.848 370.827 217.59C371.602 218.651 372.231 219.794 372.856 220.945C372.304 221.677 371.522 221.784 370.667 221.973C370.462 222.024 370.462 222.024 370.252 222.076C368.724 222.426 367.35 222.444 365.729 222.55C365.729 220.034 365.729 217.519 365.729 214.927Z" fill="#3454D1"/>
<path d="M371.43 213.923C374.091 214.457 376.58 215.759 378.76 217.334C378.448 218.133 377.95 218.502 377.258 219.002C377.064 219.146 376.869 219.29 376.668 219.438C376.113 219.741 376.113 219.741 375.681 219.767C375.084 219.414 374.853 218.855 374.548 218.262C373.884 217.041 373.14 216.02 372.221 214.968C371.837 214.525 371.837 214.525 371.43 213.923Z" fill="#3454D1"/>
<path d="M375.502 248.431C376.347 248.72 376.988 249.133 377.704 249.659C377.902 249.805 378.101 249.95 378.306 250.1C378.456 250.211 378.605 250.322 378.76 250.437C378.456 251.319 377.78 251.67 377.004 252.117C376.87 252.195 376.736 252.273 376.599 252.353C375.604 252.914 374.588 253.372 373.517 253.772C373.379 253.824 373.241 253.876 373.098 253.93C372.121 254.275 372.121 254.275 371.43 254.048C371.531 253.958 371.632 253.867 371.736 253.774C373.383 252.239 374.44 250.385 375.502 248.431Z" fill="#3454D1"/>
</g>
</g>
<defs>
<clipPath id="clip0_82_3039">
<rect width="720" height="722.539" fill="white"/>
</clipPath>
<clipPath id="clip1_82_3039">
<rect width="100" height="100" fill="white" transform="translate(310 203)"/>
</clipPath>
</defs>
</svg>
